<svg width="20" height="20" viewBox="0 0 20 20" fill="none" xmlns="http://www.w3.org/2000/svg">
<path fill-rule="evenodd" clip-rule="evenodd" d="M19.3847 9.8995C19.3847 10.4518 18.937 10.8995 18.3847 10.8995H1.41413C0.861848 10.8995 0.414133 10.4518 0.414132 9.8995C0.414133 9.34721 0.861848 8.8995 1.41413 8.89949H18.3847C18.937 8.8995 19.3847 9.34721 19.3847 9.8995Z" fill="white"/>
<path fill-rule="evenodd" clip-rule="evenodd" d="M10.6065 0.707107C10.997 1.09763 10.997 1.7308 10.6065 2.12132L2.82835 9.89949L10.6065 17.6777C10.997 18.0682 10.997 18.7014 10.6065 19.0919C10.216 19.4824 9.58283 19.4824 9.19231 19.0919L0.707026 10.6066C0.316502 10.2161 0.316501 9.58291 0.707026 9.19239L9.19231 0.707107C9.58283 0.316582 10.216 0.316582 10.6065 0.707107Z" fill="white"/>
</svg>
