<svg xmlns="http://www.w3.org/2000/svg" width="12" height="13" viewBox="0 0 12 13" fill="none">
  <path d="M10.2422 0.707078C10.6327 0.316554 11.2659 0.316554 11.6564 0.707078C12.0469 1.0976 12.0469 1.73077 11.6564 2.12129L1.75691 12.0208C1.36639 12.4113 0.733222 12.4113 0.342698 12.0208C-0.0478264 11.6303 -0.0478264 10.9971 0.342698 10.6066L10.2422 0.707078Z" fill="white"/>
  <path d="M11.6572 10.6066C12.0478 10.9971 12.0478 11.6303 11.6572 12.0208C11.2667 12.4113 10.6335 12.4113 10.243 12.0208L0.343524 2.1213C-0.0470001 1.73078 -0.047 1.09761 0.343524 0.707089C0.734049 0.316565 1.36721 0.316565 1.75774 0.707089L11.6572 10.6066Z" fill="white"/>
</svg>