<svg xmlns="http://www.w3.org/2000/svg" width="21" height="16" viewBox="0 0 21 16" fill="none">
  <path d="M5.36837 9.10418C5.28944 10.4674 6.31561 11.5901 7.65752 11.6703C8.99943 11.5901 10.0256 10.3872 9.94667 9.02399C10.0256 7.66076 8.99943 6.45791 7.65752 6.37772C6.31561 6.5381 5.28944 7.74095 5.36837 9.10418ZM8.28901 9.10418C8.28901 9.66551 7.97326 10.1466 7.57858 10.1466C7.1839 10.1466 6.86816 9.66551 6.86816 9.10418C6.86816 8.54285 7.26284 8.06171 7.65752 8.06171C8.0522 8.06171 8.28901 8.54285 8.28901 9.10418Z" fill="white" fill-opacity="0.8"/>
  <path d="M12.7893 6.45761C11.4474 6.5378 10.4212 7.74065 10.5001 9.10388C10.4212 10.4671 11.4474 11.5898 12.7893 11.7502C14.1312 11.67 15.1574 10.4671 15.0784 9.10388C15.1574 7.74065 14.1312 6.5378 12.7893 6.45761ZM12.7893 10.0662C12.3946 10.0662 12.0789 9.58502 12.0789 9.02369C12.0789 8.46236 12.3946 7.98122 12.7893 7.98122C13.184 7.98122 13.4997 8.46236 13.4997 9.02369C13.4997 9.58502 13.184 10.0662 12.7893 10.0662Z" fill="white" fill-opacity="0.8"/>
  <path d="M18.6289 3.57054C18.55 3.49035 18.55 3.41016 18.55 3.41016C17.2081 1.72617 15.3136 0.523317 13.1823 0.0421768C12.7876 -0.118203 12.314 0.202557 12.2351 0.603507C12.1562 1.00446 12.393 1.4856 12.7876 1.56579C12.7876 1.56579 12.7876 1.56579 12.8666 1.56579C14.6032 1.96674 16.1819 2.92902 17.287 4.29225C18.3132 6.77814 18.9447 9.42442 18.9447 12.1509C17.8396 13.1933 16.4976 13.9151 14.9979 14.1556V13.8349C14.9979 13.8349 14.9979 13.8349 14.9979 13.7547C15.9451 13.3537 16.8923 12.8726 17.6817 12.1509C17.9974 11.9103 18.0764 11.349 17.8396 11.0282C17.6027 10.7075 17.0502 10.6273 16.7344 10.8678C14.9189 12.3113 12.6298 13.033 10.2617 12.9528C7.97254 13.033 5.6834 12.3113 3.86787 10.8678C3.55212 10.6273 2.99957 10.6273 2.76276 11.0282C2.52595 11.4292 2.52595 11.9103 2.92063 12.1509C3.71 12.7924 4.65723 13.3537 5.60446 13.7547V14.1556C4.10468 13.9151 2.76276 13.1933 1.65766 12.1509C1.65766 9.42442 2.21021 6.77814 3.31532 4.29225C4.34148 2.92902 5.92021 2.04693 7.6568 1.64598C8.05148 1.4856 8.28829 1.08465 8.20935 0.683697C8.13042 0.202557 7.73574 -0.0380133 7.26212 0.0421768C5.13085 0.523317 3.23638 1.64598 1.89447 3.41016V3.57054C0.315744 6.77814 0.157872 9.66499 0 12.4716C0 12.7122 0.0789361 12.9528 0.236808 13.1132C1.81553 14.7971 3.9468 15.7594 6.23595 16C6.47276 16 6.63063 15.9198 6.7885 15.7594C6.94638 15.5991 7.02531 15.4387 7.02531 15.1981V14.3962C9.07765 14.8773 11.2879 14.8773 13.3402 14.3962V15.1981C13.3402 15.4387 13.4191 15.5991 13.577 15.7594C13.7349 15.9198 13.8928 16 14.1296 16C16.4187 15.8396 18.6289 14.8773 20.2076 13.1933C20.3655 13.033 20.4444 12.7924 20.4444 12.5518C20.2866 9.66499 20.1287 6.77814 18.6289 3.57054Z" fill="white" fill-opacity="0.8"/>
  <path d="M16.1014 4.53288C16.3382 4.13193 16.1803 3.65079 15.7856 3.49041C14.049 2.68851 12.1546 2.20737 10.1812 2.28756C8.28671 2.20737 6.3133 2.68851 4.57671 3.49041C4.26096 3.65079 4.10309 4.13193 4.26096 4.53288C4.49777 4.93383 4.97139 5.01402 5.36607 4.85364C6.86586 4.13193 8.52351 3.81117 10.1812 3.81117C11.8388 3.81117 13.5754 4.13193 15.0752 4.85364C15.1541 4.93383 15.312 4.93383 15.4699 4.93383C15.7067 4.93383 15.9435 4.77345 16.1014 4.53288Z" fill="white" fill-opacity="0.8"/>
</svg>