<svg width="24" height="20" viewBox="0 0 24 20" fill="none" xmlns="http://www.w3.org/2000/svg">
<path d="M6.18314 11.273C6.09223 12.8185 7.27404 14.0912 8.8195 14.1821C10.365 14.0912 11.5468 12.7276 11.4559 11.1821C11.5468 9.63667 10.365 8.27304 8.8195 8.18213C7.27404 8.36395 6.09223 9.72758 6.18314 11.273ZM9.54677 11.273C9.54677 11.9094 9.18314 12.4549 8.72859 12.4549C8.27404 12.4549 7.91041 11.9094 7.91041 11.273C7.91041 10.6367 8.36495 10.0912 8.8195 10.0912C9.27404 10.0912 9.54677 10.6367 9.54677 11.273Z" fill="white"/>
<path d="M14.7297 8.27271C13.1842 8.36361 12.0024 9.72725 12.0933 11.2727C12.0024 12.8182 13.1842 14.0909 14.7297 14.2727C16.2751 14.1818 17.4569 12.8182 17.366 11.2727C17.4569 9.72725 16.2751 8.36361 14.7297 8.27271ZM14.7297 12.3636C14.2751 12.3636 13.9115 11.8182 13.9115 11.1818C13.9115 10.5454 14.2751 9.99998 14.7297 9.99998C15.1842 9.99998 15.5478 10.5454 15.5478 11.1818C15.5478 11.8182 15.1842 12.3636 14.7297 12.3636Z" fill="white"/>
<path d="M21.4545 4.99972C21.3636 4.90881 21.3636 4.8179 21.3636 4.8179C19.8182 2.90881 17.6364 1.54517 15.1818 0.999719C14.7273 0.817901 14.1818 1.18154 14.0909 1.63608C14 2.09063 14.2727 2.63608 14.7273 2.72699C14.7273 2.72699 14.7273 2.72699 14.8182 2.72699C16.8182 3.18154 18.6364 4.27245 19.9091 5.8179C21.0909 8.63608 21.8182 11.6361 21.8182 14.727C20.5455 15.9088 19 16.727 17.2727 16.9997V16.6361C17.2727 16.6361 17.2727 16.6361 17.2727 16.5452C18.3636 16.0906 19.4545 15.5452 20.3636 14.727C20.7273 14.4543 20.8182 13.8179 20.5455 13.4543C20.2727 13.0906 19.6364 12.9997 19.2727 13.2724C17.1818 14.9088 14.5455 15.727 11.8182 15.6361C9.18182 15.727 6.54545 14.9088 4.45455 13.2724C4.09091 12.9997 3.45455 12.9997 3.18182 13.4543C2.90909 13.9088 2.90909 14.4543 3.36364 14.727C4.27273 15.4543 5.36364 16.0906 6.45454 16.5452V16.9997C4.72727 16.727 3.18182 15.9088 1.90909 14.727C1.90909 11.6361 2.54545 8.63608 3.81818 5.8179C5 4.27245 6.81818 3.27245 8.81818 2.8179C9.27273 2.63608 9.54545 2.18154 9.45454 1.72699C9.36364 1.18154 8.90909 0.90881 8.36364 0.999719C5.90909 1.54517 3.72727 2.8179 2.18182 4.8179v2.90881v2.99972C0.363636 8.63608 0.181818 11.9088 0 15.0906C0 15.3634 0.0909091 15.6361 0.272727 15.8179C2.09091 17.727 4.54545 18.8179 7.18182 19.0906C7.45455 19.0906 7.63636 18.9997 7.81818 18.8179C8 18.6361 8.09091 18.4543 8.09091 18.1815V17.2724C10.4545 17.8179 13 17.8179 15.3636 17.2724V18.1815C15.3636 18.4543 15.4545 18.6361 15.6364 18.8179C15.8182 18.9997 16 19.0906 16.2727 19.0906C18.9091 18.9088 21.4545 17.8179 23.2727 15.9088C23.4545 15.727 23.5455 15.4543 23.5455 15.1815C23.3636 11.9088 23.1818 8.63608 21.4545 4.99972Z" fill="white"/>
<path d="M18.5441 6.0907C18.8168 5.63615 18.635 5.0907 18.1805 4.90888C16.1805 3.99979 13.9987 3.45433 11.7259 3.54524C9.54412 3.45433 7.27139 3.99979 5.27139 4.90888C4.90775 5.0907 4.72594 5.63615 4.90775 6.0907C5.18048 6.54524 5.72594 6.63615 6.18048 6.45433C7.90775 5.63615 9.81684 5.27252 11.7259 5.27252C13.635 5.27252 15.635 5.63615 17.3623 6.45433C17.4532 6.54524 17.635 6.54524 17.8168 6.54524C18.0896 6.54524 18.3623 6.36342 18.5441 6.0907Z" fill="white"/>
</svg>
