<svg xmlns="http://www.w3.org/2000/svg" width="25" height="14" viewBox="0 0 25 14" fill="none">
  <path fill-rule="evenodd" clip-rule="evenodd" d="M3.43434 3.40849C2.49136 4.4301 2 5.64252 2 7C2 9.79998 4.21879 12 6.91429 12C9.64379 12 11.8989 9.77245 11.8289 7.11202C11.8287 7.10325 11.8286 7.09448 11.8286 7.08571C11.8286 5.70072 11.3192 4.41909 10.4072 3.50711C10.3985 3.49838 10.3899 3.48949 10.3815 3.48045C9.46618 2.49473 8.27947 2 6.91429 2C5.62867 2 4.35051 2.49962 3.43434 3.40849ZM2.00718 2.00718C3.31871 0.695652 5.12026 0 6.91429 0C8.80021 0 10.5228 0.700778 11.8345 2.10605C13.1395 3.41841 13.8254 5.21139 13.8286 7.07263C13.9223 10.9203 10.6947 14 6.91429 14C3.0955 14 0 10.8857 0 7C0 5.10643 0.704214 3.40936 1.98149 2.03383C1.98989 2.02479 1.99845 2.0159 2.00718 2.00718ZM17.714 2.34298C17.5926 2.34298 17.4083 2.37717 17.1354 2.65009C16.8213 2.96425 16.5005 3.52396 16.2599 4.31318C16.0236 5.08818 15.8855 6.01759 15.8855 7.00013C15.8855 8.41738 16.1829 9.6732 16.6156 10.5386C17.0824 11.4721 17.533 11.6573 17.714 11.6573C17.9065 11.6573 18.3768 11.457 18.8628 10.5239C19.3135 9.65868 19.6283 8.40724 19.6283 7.00013C19.6283 5.59514 19.3145 4.30733 18.8063 3.36243C18.6047 2.99339 18.3676 2.72015 18.1484 2.54886C17.9215 2.37162 17.7682 2.34298 17.714 2.34298ZM15.7212 1.23588C16.3054 0.651656 16.9783 0.342983 17.714 0.342983C18.3456 0.342983 18.9208 0.614348 19.3797 0.972816C19.8457 1.33689 20.251 1.83431 20.5634 2.40699L20.5659 2.41173L20.5659 2.41174C21.0093 3.23522 21.3211 4.1995 21.4876 5.22852C21.5427 4.43925 21.6317 3.77011 21.7354 3.22405C21.8221 2.76725 21.9215 2.38383 22.0254 2.08195C22.0772 1.93159 22.1345 1.78854 22.1982 1.66086C22.2532 1.55064 22.3467 1.38182 22.4929 1.23562C22.6804 1.04809 22.9348 0.942732 23.2 0.942732C23.4652 0.942732 23.7196 1.04809 23.9071 1.23562C24.1694 1.49791 24.3193 1.87078 24.4129 2.1486C24.5222 2.47327 24.6187 2.8737 24.6993 3.33464C24.8607 4.25686 24.9707 5.4897 24.9714 6.986C25.0149 8.58077 24.9047 9.82407 24.7414 10.7337C24.6597 11.1891 24.5632 11.5691 24.4621 11.8724C24.3697 12.1496 24.2487 12.4397 24.0857 12.657C23.9118 12.8889 23.6458 13.034 23.3566 13.0545C23.0674 13.0751 22.7836 12.9691 22.5786 12.7641C22.3414 12.5269 22.1843 12.2005 22.0746 11.9171C21.953 11.603 21.8426 11.2146 21.749 10.758C21.6372 10.2132 21.545 9.55066 21.4886 8.7673C21.3275 9.7686 21.033 10.6867 20.6367 11.4478C20.0512 12.5718 19.0644 13.6573 17.714 13.6573C16.3522 13.6573 15.3886 12.5567 14.8267 11.4331C14.2309 10.2413 13.8855 8.66858 13.8855 7.00013C13.8855 5.8398 14.0474 4.71207 14.3468 3.72993C14.6419 2.762 15.0925 1.86457 15.7212 1.23588ZM23.9962 2.5383C23.9962 2.53847 23.9947 2.54132 23.9916 2.54638C23.9946 2.54067 23.9962 2.53813 23.9962 2.5383Z" fill="white" fill-opacity="0.8"/>
</svg>