<svg xmlns="http://www.w3.org/2000/svg" width="20" height="18" viewBox="0 0 20 18" fill="none">
  <path fill-rule="evenodd" clip-rule="evenodd" d="M13.8628 2.16144C13.862 2.17271 13.8616 2.18423 13.8616 2.196C13.8616 2.45462 14.0516 2.592 14.1987 2.592C14.3459 2.592 14.5358 2.45462 14.5358 2.196C14.5358 1.93738 14.3459 1.8 14.1987 1.8C14.0724 1.8 13.9147 1.90115 13.8724 2.09326C13.8706 2.11066 13.8683 2.1281 13.8655 2.14558C13.8646 2.15088 13.8637 2.15617 13.8628 2.16144ZM12.1383 2.77741L10.9252 2.5808L10.607 4.58105C12.1135 4.71157 13.5158 5.12149 14.7101 5.75509C14.8122 5.67612 14.9199 5.6042 15.0327 5.54004C15.3942 5.33442 15.7974 5.21442 16.2127 5.19101C16.6281 5.16759 17.0422 5.24154 17.4243 5.40602C17.8062 5.57043 18.1447 5.82029 18.417 6.13444C18.6891 6.44845 18.8888 6.81917 19.004 7.21866C19.1193 7.61809 19.148 8.03845 19.0886 8.44998C19.0292 8.86153 18.8828 9.25644 18.6577 9.60579C18.5656 9.74872 18.4612 9.88273 18.3458 10.0062C18.4487 10.4179 18.5008 10.8422 18.5005 11.2687C18.5005 11.2685 18.5005 11.2689 18.5005 11.2687C18.5002 13.2404 17.3965 14.9444 15.7724 16.1216C14.1472 17.2996 11.9473 18 9.55936 18C7.17146 18 4.97153 17.2996 3.34635 16.1216C1.72218 14.9444 0.618411 13.2402 0.618274 11.2684C0.617967 10.8419 0.670094 10.4178 0.772972 10.0062C0.939815 10.1845 1.12968 10.3408 1.33859 10.4701L1.81208 9.7047L0.974151 9.37626C0.893553 9.58189 0.826415 9.79234 0.772972 10.0062C0.657515 9.88273 0.553083 9.74872 0.460996 9.60579C0.235919 9.25644 0.0894867 8.86153 0.0300858 8.44998C-0.0293105 8.03845 -0.000581503 7.61809 0.114686 7.21866C0.229972 6.81917 0.429605 6.44845 0.701777 6.13444C0.974072 5.82029 1.31256 5.57042 1.69444 5.40602C2.0765 5.24154 2.4906 5.16759 2.90599 5.19101C3.32136 5.21442 3.72453 5.33442 4.08603 5.54004C4.19884 5.60421 4.30658 5.67613 4.40866 5.7551C4.18832 5.87199 3.97507 5.99649 3.76956 6.12826L4.25534 6.8859L4.99418 6.37198C4.8309 6.13725 4.63354 5.92907 4.40866 5.7551C5.67548 5.08305 7.17656 4.66266 8.78762 4.56039L9.28936 1.4066C9.32693 1.17042 9.45696 0.958908 9.65073 0.818756C9.84451 0.678603 10.0861 0.621334 10.3222 0.659591L12.4087 0.997739C12.7836 0.405111 13.4315 0 14.1987 0C15.418 0 16.3358 1.0231 16.3358 2.196C16.3358 3.3689 15.418 4.392 14.1987 4.392C13.1869 4.392 12.3827 3.68745 12.1383 2.77741ZM9.55964 6.336C7.68091 6.336 5.99703 6.83829 4.74111 7.64354C4.33376 7.90472 3.79281 7.79706 3.5165 7.39982C3.42933 7.2745 3.31909 7.17461 3.19608 7.10465C3.07327 7.03479 2.93963 6.99576 2.80469 6.98815C2.66978 6.98055 2.53388 7.00436 2.4062 7.05932C2.27833 7.11437 2.16013 7.20012 2.06195 7.3134C1.96364 7.42681 1.88831 7.56459 1.84411 7.71774C1.7999 7.87096 1.78863 8.03351 1.81163 8.19284C1.83462 8.35214 1.8909 8.50171 1.97414 8.6309C2.05729 8.75997 2.16451 8.86443 2.28558 8.93932C2.6553 9.16805 2.80867 9.62836 2.65001 10.0331C2.49697 10.4236 2.41794 10.843 2.41827 11.2673C2.41827 12.5191 3.11598 13.7315 4.40274 14.6642C5.68859 15.5963 7.5092 16.2 9.55936 16.2C11.6095 16.2 13.4301 15.5963 14.716 14.6642C16.0027 13.7315 16.7005 12.5198 16.7005 11.268C16.7008 10.8437 16.6218 10.4236 16.4687 10.0331C16.3101 9.62836 16.4634 9.16805 16.8332 8.93932C16.9542 8.86443 17.0614 8.75997 17.1446 8.6309C17.2278 8.50171 17.2841 8.35214 17.3071 8.19284C17.3301 8.03351 17.3188 7.87096 17.2746 7.71774C17.2304 7.56459 17.1551 7.42682 17.0568 7.3134C16.9586 7.20012 16.8404 7.11437 16.7125 7.05932C16.5849 7.00436 16.4489 6.98055 16.314 6.98815C16.1791 6.99576 16.0455 7.03479 15.9226 7.10465C15.7996 7.17461 15.6894 7.2745 15.6022 7.39982C15.3259 7.79706 14.785 7.90472 14.3776 7.64354C13.1217 6.83827 11.4383 6.336 9.55964 6.336ZM6.21662 13.4316C6.4532 12.9945 6.99936 12.8319 7.4365 13.0685C8.09513 13.4249 8.82299 13.6096 9.55964 13.6096C10.2963 13.6096 11.0241 13.4249 11.6828 13.0685C12.1199 12.8319 12.6661 12.9945 12.9027 13.4316C13.1392 13.8688 12.9766 14.4149 12.5395 14.6515C11.6206 15.1488 10.5986 15.4096 9.55964 15.4096C8.52065 15.4096 7.4987 15.1488 6.57977 14.6515C6.14263 14.4149 5.98004 13.8688 6.21662 13.4316Z" fill="white" fill-opacity="0.8"/>
  <path d="M6.46691 11.43C7.06473 11.43 7.54936 10.9223 7.54936 10.296C7.54936 9.66971 7.06473 9.162 6.46691 9.162C5.86909 9.162 5.38445 9.66971 5.38445 10.296C5.38445 10.9223 5.86909 11.43 6.46691 11.43Z" fill="white" fill-opacity="0.8"/>
  <path d="M12.6524 11.43C13.2502 11.43 13.7348 10.9223 13.7348 10.296C13.7348 9.66971 13.2502 9.162 12.6524 9.162C12.0545 9.162 11.5699 9.66971 11.5699 10.296C11.5699 10.9223 12.0545 11.43 12.6524 11.43Z" fill="white" fill-opacity="0.8"/>
</svg>