<svg xmlns="http://www.w3.org/2000/svg" width="41" height="40" viewBox="0 0 41 40" fill="none">
  <path d="M21.9094 39.9663C21.2801 40.0103 20.7163 39.5918 20.5212 38.992C19.8994 37.0801 18.8248 35.0757 17.2975 32.9794C15.4854 30.4607 12.994 28.1811 9.82305 26.1403C7.06357 24.3426 4.34814 23.175 1.67681 22.6376C1.04413 22.5105 0.552734 21.9917 0.507716 21.3479C0.463579 20.7167 0.861015 20.1422 1.45582 19.9264C3.97419 19.013 6.36639 17.6488 8.63243 15.8337C11.2356 13.7372 13.3618 11.2913 15.0111 8.49583C16.469 6.00637 17.4195 3.57861 17.8627 1.21259C17.9788 0.592756 18.4834 0.108184 19.1126 0.0641896C19.7486 0.0197129 20.3202 0.438975 20.5182 1.04519C20.9652 2.41376 21.6111 3.8014 22.4561 5.20807C23.5174 6.94382 24.8334 8.59214 26.4045 10.153C28.0077 11.6768 29.7734 13.0327 31.7011 14.2205C34.219 15.7533 36.7412 16.7774 39.2681 17.293C39.888 17.4194 40.3664 17.93 40.4105 18.5611C40.4553 19.2016 40.0396 19.7792 39.4337 19.9918C37.8927 20.5324 36.324 21.3402 34.7281 22.4148C32.8014 23.733 31.029 25.2665 29.4109 27.0157C27.7905 28.7301 26.4879 30.5093 25.5029 32.3533C24.2799 34.6466 23.4948 36.797 23.148 38.8049C23.0404 39.4277 22.5397 39.9222 21.9094 39.9663Z" fill="#111111"/>
</svg>