<svg xmlns="http://www.w3.org/2000/svg" width="21" height="18" viewBox="0 0 21 18" fill="none">
  <path d="M20.1208 0.401114C19.6667 0.0401114 18.9402 -0.14039 18.3954 0.130362L0.868984 7.16992C0.142501 7.44067 -0.22074 8.25292 0.142501 8.97493C0.324122 9.33593 0.596553 9.60668 0.868984 9.69694L1.95871 10.1482C2.32195 10.3287 2.776 10.1482 2.95762 9.78719C3.13924 9.42618 2.95762 8.97493 2.50357 8.79443L1.77709 8.43343L18.9402 1.57437C19.0311 1.57437 19.0311 1.57437 19.1219 1.57437C19.2127 1.57437 19.2127 1.66462 19.2127 1.75487L16.1251 16.2852C16.1251 16.3755 16.0343 16.4657 15.9435 16.556C15.8527 16.556 15.7619 16.556 15.6711 16.4657L9.49597 11.7727L15.4895 5.72591C15.7619 5.45515 15.7619 4.91365 15.4895 4.6429C15.217 4.37214 14.8538 4.37214 14.5814 4.55265L5.77275 9.69694C5.4095 9.87744 5.22788 10.3287 5.4095 10.6897C5.59112 11.0507 6.04518 11.2312 6.40842 11.0507C6.49923 11.0507 6.49923 10.9604 6.49923 10.9604L10.2225 8.79443L8.40625 10.5994C7.77057 11.1409 7.77057 12.1337 8.31544 12.7655C8.40625 12.8557 8.49706 12.8557 8.49706 12.946L14.5814 17.639C14.9446 17.9097 15.3078 18 15.6711 18C15.8527 18 16.1251 18 16.3067 17.9097C16.9424 17.7292 17.3057 17.1877 17.4873 16.556L20.5748 2.02563C20.8473 1.48412 20.6656 0.852368 20.1208 0.401114Z" fill="white" fill-opacity="0.8"/>
</svg>