<svg xmlns="http://www.w3.org/2000/svg" width="43" height="44" viewBox="0 0 43 44" fill="none">
  <path fill-rule="evenodd" clip-rule="evenodd" d="M0.571565 4.3889C0.855064 3.71689 1.49226 3.26132 2.21984 3.21045L11.8315 2.53833C12.4466 2.49532 13.0453 2.74791 13.4437 3.21846L24.2336 15.9626L36.9352 1.35119C37.6364 0.544452 38.8589 0.458966 39.6657 1.16025C40.4724 1.86154 40.5579 3.08403 39.8566 3.89077L26.7643 18.9517L42.3933 37.4114C42.8646 37.968 42.9829 38.7423 42.6994 39.4143C42.4159 40.0863 41.7787 40.5419 41.0511 40.5928L31.4394 41.2649C30.8244 41.3079 30.2257 41.0553 29.8273 40.5848L19.0374 27.8406L6.33582 42.452C5.63453 43.2588 4.41203 43.3443 3.6053 42.643C2.79856 41.9417 2.71307 40.7192 3.41436 39.9124L16.5066 24.8515L0.877696 6.39186C0.406412 5.83521 0.288067 5.0609 0.571565 4.3889ZM22.6138 20.0402C22.6848 20.143 22.7667 20.2403 22.8594 20.3302L36.971 36.9977L32.1478 37.3349L6.29999 6.80555L11.1231 6.46829L22.6138 20.0402Z" fill="#111111"/>
</svg>