<svg width="31" height="28" viewBox="0 0 31 28" fill="none" xmlns="http://www.w3.org/2000/svg">
<g clip-path="url(#clip0_224_3140)">
<path d="M28.6518 0.107178L16.9248 8.78852L19.1041 3.67081L28.6518 0.107178Z" fill="#E17726" stroke="#E17726" stroke-width="0.25" stroke-linecap="round" stroke-linejoin="round"/>
<path d="M1.59863 0.107178L13.2273 8.8689L11.1463 3.67081L1.59863 0.107178Z" fill="#E27625" stroke="#E27625" stroke-width="0.25" stroke-linecap="round" stroke-linejoin="round"/>
<path d="M24.4276 20.2386L21.3105 25.008L27.9912 26.8479L29.9026 20.3458L24.4276 20.2386Z" fill="#E27625" stroke="#E27625" stroke-width="0.25" stroke-linecap="round" stroke-linejoin="round"/>
<path d="M0.357422 20.3458L2.25981 26.8479L8.93158 25.008L5.82345 20.2386L0.357422 20.3458Z" fill="#E27625" stroke="#E27625" stroke-width="0.25" stroke-linecap="round" stroke-linejoin="round"/>
<path d="M8.57453 12.1825L6.7168 14.9869L13.326 15.2906L13.1028 8.17224L8.57453 12.1825Z" fill="#E27625" stroke="#E27625" stroke-width="0.25" stroke-linecap="round" stroke-linejoin="round"/>
<path d="M21.6853 12.1824L17.0766 8.08289L16.9248 15.2816L23.5341 14.9779L21.6853 12.1824Z" fill="#E27625" stroke="#E27625" stroke-width="0.25" stroke-linecap="round" stroke-linejoin="round"/>
<path d="M8.93164 25.0079L12.9329 23.0787L9.48539 20.3904L8.93164 25.0079Z" fill="#E27625" stroke="#E27625" stroke-width="0.25" stroke-linecap="round" stroke-linejoin="round"/>
<path d="M17.3184 23.0698L21.3107 25.0079L20.7659 20.3904L17.3184 23.0698Z" fill="#E27625" stroke="#E27625" stroke-width="0.25" stroke-linecap="round" stroke-linejoin="round"/>
<path d="M21.3107 25.0079L17.3184 23.0787L17.6399 25.6688L17.6042 26.7674L21.3107 25.0079Z" fill="#D5BFB2" stroke="#D5BFB2" stroke-width="0.25" stroke-linecap="round" stroke-linejoin="round"/>
<path d="M8.93164 25.0079L12.6471 26.7674L12.6203 25.6688L12.9329 23.0787L8.93164 25.0079Z" fill="#D5BFB2" stroke="#D5BFB2" stroke-width="0.25" stroke-linecap="round" stroke-linejoin="round"/>
<path d="M12.7092 18.6756L9.38672 17.702L11.7268 16.6213L12.7092 18.6756Z" fill="#233447" stroke="#233447" stroke-width="0.25" stroke-linecap="round" stroke-linejoin="round"/>
<path d="M17.541 18.6755L18.5145 16.6302L20.8724 17.7109L17.541 18.6755Z" fill="#233447" stroke="#233447" stroke-width="0.25" stroke-linecap="round" stroke-linejoin="round"/>
<path d="M8.93138 25.008L9.51192 20.2386L5.82324 20.3458L8.93138 25.008Z" fill="#CC6228" stroke="#CC6228" stroke-width="0.25" stroke-linecap="round" stroke-linejoin="round"/>
<path d="M20.7383 20.2386L21.3099 25.008L24.427 20.3458L20.7383 20.2386Z" fill="#CC6228" stroke="#CC6228" stroke-width="0.25" stroke-linecap="round" stroke-linejoin="round"/>
<path d="M23.5341 14.9869L16.9248 15.2906L17.5411 18.6845L18.5146 16.6392L20.8725 17.72L23.5341 14.9869Z" fill="#CC6228" stroke="#CC6228" stroke-width="0.25" stroke-linecap="round" stroke-linejoin="round"/>
<path d="M9.39622 17.7021L11.7363 16.6214L12.7098 18.6667L13.326 15.2728L6.7168 14.9691L9.39622 17.7021Z" fill="#CC6228" stroke="#CC6228" stroke-width="0.25" stroke-linecap="round" stroke-linejoin="round"/>
<path d="M6.7168 14.9869L9.48554 20.3904L9.39622 17.7021L6.7168 14.9869Z" fill="#E27525" stroke="#E27525" stroke-width="0.25" stroke-linecap="round" stroke-linejoin="round"/>
<path d="M20.8728 17.7021L20.7656 20.3904L23.5344 14.9869L20.8728 17.7021Z" fill="#E27525" stroke="#E27525" stroke-width="0.25" stroke-linecap="round" stroke-linejoin="round"/>
<path d="M13.3253 15.2816L12.709 18.6756L13.486 22.6768L13.6557 17.3984L13.3253 15.2816Z" fill="#E27525" stroke="#E27525" stroke-width="0.25" stroke-linecap="round" stroke-linejoin="round"/>
<path d="M16.925 15.2816L16.6035 17.3894L16.7643 22.6768L17.5413 18.6756L16.925 15.2816Z" fill="#E27525" stroke="#E27525" stroke-width="0.25" stroke-linecap="round" stroke-linejoin="round"/>
<path d="M17.5417 18.6756L16.7646 22.6768L17.3184 23.0698L20.7659 20.3815L20.8731 17.6931L17.5417 18.6756Z" fill="#F5841F" stroke="#F5841F" stroke-width="0.25" stroke-linecap="round" stroke-linejoin="round"/>
<path d="M9.39551 17.702L9.48482 20.3904L12.9323 23.0787L13.4861 22.6858L12.7091 18.6845L9.39551 17.702Z" fill="#F5841F" stroke="#F5841F" stroke-width="0.25" stroke-linecap="round" stroke-linejoin="round"/>
<path d="M17.613 26.7674L17.6487 25.6689L17.345 25.4098H12.9151L12.6292 25.6689L12.656 26.7674L8.93164 25.0079L10.2356 26.0708L12.8704 27.8839H17.3808L20.0245 26.0708L21.3106 25.0079L17.613 26.7674Z" fill="#C0AC9D" stroke="#C0AC9D" stroke-width="0.25" stroke-linecap="round" stroke-linejoin="round"/>
<path d="M17.318 23.0699L16.7643 22.6769H13.4865L12.9327 23.0699L12.6201 25.66L12.9059 25.401H17.3359L17.6396 25.66L17.318 23.0699Z" fill="#161616" stroke="#161616" stroke-width="0.25" stroke-linecap="round" stroke-linejoin="round"/>
<path d="M29.1525 9.36011L30.1349 4.57287L28.6523 0.116089L17.3184 8.50269L21.6769 12.1824L27.8396 13.9777L29.1971 12.3879L28.6077 11.9592L29.5455 11.1017L28.822 10.548L29.7598 9.83347L29.1525 9.36011Z" fill="#763E1A" stroke="#763E1A" stroke-width="0.25" stroke-linecap="round" stroke-linejoin="round"/>
<path d="M0.107422 4.56396L1.10774 9.3512L0.47361 9.82456L1.42927 10.5391L0.705827 11.0928L1.64363 11.9502L1.05415 12.3789L2.41173 13.9687L8.57441 12.1735L12.9329 8.49378L1.59897 0.107178L0.107422 4.56396Z" fill="#763E1A" stroke="#763E1A" stroke-width="0.25" stroke-linecap="round" stroke-linejoin="round"/>
<path d="M27.8393 13.9777L21.6766 12.1825L23.5344 14.987L20.7656 20.3905L24.4364 20.3458H29.9114L27.8393 13.9777Z" fill="#F5841F" stroke="#F5841F" stroke-width="0.25" stroke-linecap="round" stroke-linejoin="round"/>
<path d="M8.57433 12.1825L2.41165 13.9777L0.357422 20.3458H5.82345L9.49426 20.3905L6.72552 14.987L8.57433 12.1825Z" fill="#F5841F" stroke="#F5841F" stroke-width="0.25" stroke-linecap="round" stroke-linejoin="round"/>
<path d="M16.9251 15.2816L17.3181 8.50265L19.1044 3.67969H11.1465L12.9328 8.50265L13.3258 15.2816L13.4776 17.4073L13.4865 22.6768H16.7554L16.7643 17.4073L16.9251 15.2816Z" fill="#F5841F" stroke="#F5841F" stroke-width="0.25" stroke-linecap="round" stroke-linejoin="round"/>
</g>
<defs>
<clipPath id="clip0_224_3140">
<rect width="30.2507" height="28" fill="white"/>
</clipPath>
</defs>
</svg>
