<svg width="36" height="22" viewBox="0 0 36 22" fill="none" xmlns="http://www.w3.org/2000/svg">
<g clip-path="url(#clip0_224_3185)">
<path d="M7.34841 4.29906C13.2021 -1.43253 22.6929 -1.43253 28.5465 4.29906L29.2515 4.98843C29.5447 5.27447 29.5447 5.74003 29.2515 6.02607L26.8411 8.38621C26.6951 8.52983 26.4569 8.52983 26.3109 8.38621L25.3414 7.43713C21.2579 3.43854 14.6371 3.43854 10.5523 7.43713L9.51347 8.45323C9.36745 8.59685 9.12929 8.59685 8.98327 8.45323L6.57527 6.09309C6.28204 5.80705 6.28204 5.34149 6.57527 5.05545L7.34841 4.29906ZM33.5313 9.1785L35.676 11.2789C35.9692 11.565 35.9692 12.0305 35.676 12.3166L26.0045 21.7858C25.7113 22.0719 25.2373 22.0719 24.9441 21.7858L18.0803 15.0657C18.0073 14.9939 17.8888 14.9939 17.8158 15.0657L10.9509 21.7858C10.6576 22.0719 10.1837 22.0719 9.89047 21.7858L0.21894 12.3166C-0.074282 12.0305 -0.074282 11.565 0.21894 11.2789L2.36365 9.1785C2.65687 8.89246 3.13081 8.89246 3.42403 9.1785L10.2878 15.8999C10.3608 15.9717 10.4793 15.9717 10.5523 15.8999L17.4161 9.1785C17.7093 8.89246 18.1833 8.89246 18.4765 9.1785L25.3403 15.8999C25.4133 15.9717 25.5317 15.9717 25.6048 15.8999L32.4685 9.1797C32.7641 8.89246 33.2381 8.89246 33.5313 9.1785Z" fill="#3B99FC"/>
</g>
<defs>
<clipPath id="clip0_224_3185">
<rect width="35.8951" height="22" fill="white"/>
</clipPath>
</defs>
</svg>
