<svg xmlns="http://www.w3.org/2000/svg" width="145" height="50" viewBox="0 0 145 50" fill="none">
  <path d="M11.3652 1.61361L12.4391 0.566334L11.3652 1.61361L20.586 11.0686C20.7543 11.2411 20.7543 11.5353 20.586 11.7078L11.3656 21.1624C11.2176 21.3141 10.9939 21.3134 10.847 21.1628L1.62618 11.7078C1.45794 11.5353 1.45794 11.2411 1.62618 11.0686L0.552305 10.0214L1.62618 11.0686L10.847 1.61361C10.9947 1.46213 11.2175 1.46213 11.3652 1.61361Z" stroke="url(#paint0_linear_2410_1107)" stroke-width="3"/>
  <g filter="url(#filter0_b_2410_1107)">
    <path d="M23.5612 35.8219L14.3404 26.3669C13.604 25.6118 13.604 24.3883 14.3404 23.6332L23.5612 14.1782C24.2976 13.423 25.4908 13.423 26.2272 14.1782L35.448 23.6332C36.1844 24.3883 36.1844 25.6118 35.448 26.3669L26.2272 35.8219C25.4913 36.577 24.2976 36.577 23.5612 35.8219Z" fill="url(#paint1_linear_2410_1107)"/>
  </g>
  <path d="M9.77311 49.4342L0.552305 39.9792C-0.184101 39.2241 -0.184101 38.0006 0.552305 37.2455L9.77311 27.7905C10.5095 27.0353 11.7027 27.0353 12.4391 27.7905L21.6599 37.2455C22.3963 38.0006 22.3963 39.2241 21.6599 39.9792L12.4391 49.4342C11.7027 50.1887 10.5089 50.1887 9.77311 49.4342Z" fill="url(#paint2_linear_2410_1107)"/>
  <path d="M64.1678 41C61.9223 41 59.8115 40.6022 57.8354 39.8066C55.8893 38.9816 54.1677 37.8324 52.6707 36.3591C51.2036 34.8858 50.0509 33.1915 49.2126 31.2762C48.4042 29.3315 48 27.2394 48 25C48 22.7311 48.4192 20.639 49.2575 18.7238C50.0958 16.779 51.2635 15.0847 52.7605 13.6409C54.2576 12.1676 56.0091 11.0331 58.0151 10.2376C60.0211 9.41252 62.1918 9 64.5271 9C67.1319 9 69.5272 9.48619 71.7128 10.4586C73.8985 11.4015 75.7099 12.7422 77.147 14.4807L73.0152 18.547C72.0272 17.2799 70.7996 16.3076 69.3326 15.6298C67.8655 14.9521 66.2487 14.6133 64.4822 14.6133C62.4762 14.6133 60.6947 15.0552 59.1378 15.9392C57.6109 16.7937 56.4133 18.0018 55.545 19.5635C54.6767 21.0958 54.2426 22.8932 54.2426 24.9558C54.2426 27.0184 54.6617 28.8453 55.5001 30.4365C56.3684 31.9982 57.536 33.221 59.0031 34.105C60.5001 34.9889 62.2067 35.4309 64.1229 35.4309C66.099 35.4309 67.7906 35.0773 69.1978 34.3702C70.605 33.6335 71.6829 32.5727 72.4314 31.1878C73.1799 29.7735 73.5542 28.0497 73.5542 26.0166L77.5512 28.7127L63.7636 28.5801V23.3646H79.8417V24.2044C79.8417 27.9171 79.168 31.0258 77.8207 33.5304C76.4734 36.0055 74.617 37.8766 72.2518 39.1436C69.9164 40.3812 67.2218 41 64.1678 41Z" fill="white"/>
  <path d="M83.898 40.558V19.2099H89.8262V40.558H83.898ZM86.8621 15.7624C85.904 15.7624 85.1106 15.453 84.4818 14.8343C83.8531 14.186 83.5387 13.3904 83.5387 12.4475C83.5387 11.5341 83.8531 10.7532 84.4818 10.105C85.1106 9.45672 85.904 9.1326 86.8621 9.1326C87.8501 9.1326 88.6436 9.45672 89.2424 10.105C89.8711 10.7532 90.1855 11.5341 90.1855 12.4475C90.1855 13.3904 89.8711 14.186 89.2424 14.8343C88.6436 15.453 87.8501 15.7624 86.8621 15.7624Z" fill="white"/>
  <path d="M98.2266 40.558V10.326H104.11V40.558H98.2266ZM93.1517 24.2928V19.2099H122.613V24.2928H93.1517ZM111.655 40.558V10.326H117.538V40.558H111.655Z" fill="white"/>
  <path d="M135.209 41C133.293 41 131.587 40.6022 130.09 39.8066C128.623 39.011 127.47 37.9061 126.632 36.4917C125.793 35.0773 125.374 33.442 125.374 31.5856V19.2099H131.302V31.453C131.302 32.337 131.452 33.1031 131.751 33.7514C132.051 34.3702 132.5 34.8416 133.099 35.1657C133.697 35.4899 134.401 35.6519 135.209 35.6519C136.437 35.6519 137.395 35.2836 138.084 34.547C138.772 33.8103 139.117 32.779 139.117 31.453V19.2099H145V31.5856C145 33.4715 144.581 35.1215 143.743 36.5359C142.934 37.9503 141.781 39.0552 140.284 39.8508C138.817 40.6169 137.126 41 135.209 41Z" fill="white"/>
  <defs>
    <filter id="filter0_b_2410_1107" x="-6.21191" y="-6.38818" width="62.2119" height="62.7764" filterUnits="userSpaceOnUse" color-interpolation-filters="sRGB">
      <feFlood flood-opacity="0" result="BackgroundImageFix"/>
      <feGaussianBlur in="BackgroundImageFix" stdDeviation="10"/>
      <feComposite in2="SourceAlpha" operator="in" result="effect1_backgroundBlur_2410_1107"/>
      <feBlend mode="normal" in="SourceGraphic" in2="effect1_backgroundBlur_2410_1107" result="shape"/>
    </filter>
    <linearGradient id="paint0_linear_2410_1107" x1="11.1061" y1="0" x2="11.1061" y2="22.776" gradientUnits="userSpaceOnUse">
      <stop stop-color="white"/>
      <stop offset="1" stop-color="white" stop-opacity="0.3"/>
    </linearGradient>
    <linearGradient id="paint1_linear_2410_1107" x1="13.7881" y1="13.6118" x2="39.8045" y2="19.4575" gradientUnits="userSpaceOnUse">
      <stop stop-color="#3C38FF"/>
      <stop offset="0.333333" stop-color="#8C45FF"/>
      <stop offset="0.682292" stop-color="#FF36C7"/>
      <stop offset="1" stop-color="#FFA336"/>
    </linearGradient>
    <linearGradient id="paint2_linear_2410_1107" x1="11.1061" y1="27.2241" x2="11.1061" y2="50.0001" gradientUnits="userSpaceOnUse">
      <stop stop-color="white" stop-opacity="0.3"/>
      <stop offset="1" stop-color="white"/>
    </linearGradient>
  </defs>
</svg>