<svg xmlns="http://www.w3.org/2000/svg" width="80" height="80" viewBox="0 0 80 80" fill="none">
  <g filter="url(#filter0_b_2410_299)">
    <circle cx="40" cy="40" r="40" transform="rotate(-180 40 40)" fill="white" fill-opacity="0.15"/>
    <circle cx="40" cy="40" r="39" transform="rotate(-180 40 40)" stroke="url(#paint0_angular_2410_299)" stroke-width="2"/>
  </g>
  <path d="M35.3652 16.6136L36.4391 15.5663L35.3652 16.6136L44.586 26.0686C44.7543 26.2411 44.7543 26.5353 44.586 26.7078L35.3656 36.1624C35.2176 36.3141 34.9939 36.3134 34.847 36.1628L25.6262 26.7078C25.4579 26.5353 25.4579 26.2411 25.6262 26.0686L24.5523 25.0214L25.6262 26.0686L34.847 16.6136C34.9947 16.4621 35.2175 16.4621 35.3652 16.6136Z" stroke="url(#paint1_linear_2410_299)" stroke-width="3"/>
  <path d="M47.5612 50.8219L38.3404 41.3669C37.604 40.6118 37.604 39.3883 38.3404 38.6332L47.5612 29.1782C48.2976 28.423 49.4908 28.423 50.2272 29.1782L59.448 38.6332C60.1844 39.3883 60.1844 40.6118 59.448 41.3669L50.2272 50.8219C49.4913 51.577 48.2976 51.577 47.5612 50.8219Z" fill="url(#paint2_angular_2410_299)"/>
  <path d="M33.7731 64.4342L24.5523 54.9792C23.8159 54.2241 23.8159 53.0006 24.5523 52.2455L33.7731 42.7905C34.5095 42.0353 35.7027 42.0353 36.4391 42.7905L45.6599 52.2455C46.3963 53.0006 46.3963 54.2241 45.6599 54.9792L36.4391 64.4342C35.7027 65.1887 34.5089 65.1887 33.7731 64.4342Z" fill="url(#paint3_linear_2410_299)"/>
  <defs>
    <filter id="filter0_b_2410_299" x="-20" y="-20" width="120" height="120" filterUnits="userSpaceOnUse" color-interpolation-filters="sRGB">
      <feFlood flood-opacity="0" result="BackgroundImageFix"/>
      <feGaussianBlur in="BackgroundImageFix" stdDeviation="10"/>
      <feComposite in2="SourceAlpha" operator="in" result="effect1_backgroundBlur_2410_299"/>
      <feBlend mode="normal" in="SourceGraphic" in2="effect1_backgroundBlur_2410_299" result="shape"/>
    </filter>
    <radialGradient id="paint0_angular_2410_299" cx="0" cy="0" r="1" gradientUnits="userSpaceOnUse" gradientTransform="translate(40 40) rotate(90) scale(40)">
      <stop stop-color="#6ACF15"/>
      <stop offset="1" stop-opacity="0"/>
    </radialGradient>
    <linearGradient id="paint1_linear_2410_299" x1="35.1061" y1="15" x2="35.1061" y2="37.776" gradientUnits="userSpaceOnUse">
      <stop stop-color="white"/>
      <stop offset="1" stop-color="white" stop-opacity="0.3"/>
    </linearGradient>
    <radialGradient id="paint2_angular_2410_299" cx="0" cy="0" r="1" gradientUnits="userSpaceOnUse" gradientTransform="translate(48.8942 40) rotate(-90) scale(11.3882 11.1061)">
      <stop stop-color="#6ACF15"/>
      <stop offset="1" stop-color="#209B44"/>
    </radialGradient>
    <linearGradient id="paint3_linear_2410_299" x1="35.1061" y1="42.2241" x2="35.1061" y2="65.0001" gradientUnits="userSpaceOnUse">
      <stop stop-color="white" stop-opacity="0.3"/>
      <stop offset="1" stop-color="white"/>
    </linearGradient>
  </defs>
</svg>