<svg width="30" height="30" viewBox="0 0 30 30" fill="none" xmlns="http://www.w3.org/2000/svg">
<path d="M29.5479 18.6286C27.5445 26.6644 19.4055 31.5548 11.3688 29.5509C3.33542 27.5476 -1.55501 19.4081 0.449228 11.373C2.45171 3.33629 10.5907 -1.55451 18.6249 0.448851C26.6611 2.45221 31.5512 10.5926 29.5476 18.6287L29.5478 18.6286H29.5479Z" fill="#F3BA2F"/>
<path fill-rule="evenodd" clip-rule="evenodd" d="M15.0003 9.52024L11.1161 13.4044L11.1162 13.4042L8.85626 11.1442L15.0003 5.00024L21.1463 11.1461L18.8863 13.4061L15.0003 9.52024ZM7.26087 12.7399L5.00079 15.0003L7.26071 17.2599L9.52079 14.9998L7.26087 12.7399ZM11.117 16.5963L15.0011 20.4802L18.887 16.5945L21.1482 18.8533L21.1471 18.8545L15.0011 25.0002L8.85712 18.8562L8.85392 18.853L11.117 16.5963ZM22.7413 12.7411L20.4813 15.0011L22.7413 17.2611L25.0013 15.001L22.7413 12.7411Z" fill="white"/>
<path d="M17.2921 14.9987H17.293L14.9999 12.7054L13.305 14.3999L13.1102 14.5947L12.7086 14.9964L12.7054 14.9995L12.7086 15.0028L14.9999 17.2944L17.2932 15.0011L17.2943 14.9998L17.2922 14.9987" fill="white"/>
</svg>
