<svg width="30" height="30" viewBox="0 0 30 30" fill="none" xmlns="http://www.w3.org/2000/svg">
<path d="M29.5479 18.6286C27.5445 26.6644 19.4055 31.5548 11.3688 29.5509C3.33542 27.5476 -1.55501 19.4081 0.449228 11.373C2.45171 3.33629 10.5907 -1.55451 18.6249 0.448851C26.6611 2.45221 31.5512 10.5926 29.5476 18.6287L29.5478 18.6286H29.5479Z" fill="#50AF95"/>
<path fill-rule="evenodd" clip-rule="evenodd" d="M16.8984 16.7009C16.7924 16.7089 16.2444 16.7416 15.022 16.7416C14.0497 16.7416 13.3594 16.7124 13.1173 16.7009C9.35997 16.5356 6.55547 15.8816 6.55547 15.0985C6.55547 14.3154 9.35997 13.6622 13.1173 13.4943V16.0495C13.363 16.0672 14.0665 16.1087 15.0388 16.1087C16.2055 16.1087 16.7897 16.0601 16.8949 16.0504V13.496C20.6442 13.6631 23.4426 14.3171 23.4426 15.0985C23.4426 15.8798 20.6451 16.5339 16.8949 16.7L16.8984 16.7009ZM16.8981 13.2315V10.945H22.1306V7.45813H7.88451V10.945H13.1161V13.2306C8.86383 13.426 5.66602 14.2683 5.66602 15.2777C5.66602 16.287 8.86383 17.1285 13.1161 17.3247V24.6519H16.8973V17.322C21.1398 17.1267 24.3323 16.2853 24.3323 15.2768C24.3323 14.2683 21.1425 13.4269 16.8973 13.2306L16.8981 13.2315Z" fill="white"/>
</svg>
