<svg width="129" height="25" viewBox="0 0 129 25" fill="none" xmlns="http://www.w3.org/2000/svg">
<g opacity="0.7" clip-path="url(#clip0_1_216)">
<path d="M6.4 23.45C5.8 24.35 4.7 25 3.5 25C1.55 25 0 23.45 0 21.5C0 20.55 0.4 19.65 1 19.05C1.15 18.85 15 1.75 15.2 1.55C15.8 0.65 16.9 0 18.1 0C20.05 0 21.6 1.55 21.6 3.5C21.6 4.45 21.2 5.35 20.6 5.95C20.45 6.15 6.55 23.25 6.4 23.45ZM28.6 14.05C29.25 13.4 29.6 12.55 29.6 11.6C29.6 9.65 28.05 8.1 26.1 8.1C24.9 8.1 23.8 8.75 23.2 9.65C23.05 9.8 15.75 18.8 15.6 19C14.95 19.65 14.6 20.5 14.6 21.45C14.6 23.4 16.15 24.95 18.1 24.95C19.3 24.95 20.4 24.3 21 23.4C21.2 23.25 28.5 14.25 28.6 14.05ZM32.75 0C30.8 0 29.25 1.55 29.25 3.5C29.25 5.45 30.8 7 32.75 7C34.7 7 36.25 5.45 36.25 3.5C36.25 1.55 34.65 0 32.75 0ZM3.5 0C1.55 0 0 1.55 0 3.5C0 5.45 1.55 7 3.5 7C5.45 7 7 5.45 7 3.5C7 1.55 5.4 0 3.5 0ZM46.95 22.35H49.35V6.15H54.9v2.15H41.4V6.15H46.95V22.35ZM55.6 22.35H57.95V15.4C57.95 15 58 14.6 58.05 14.3C58.35 12.5 59.55 11.25 61.25 11.25C61.55 11.25 61.8 11.3 62.05 11.35V9.1C61.85 9.05 61.65 9 61.35 9C59.75 9 58.35 10.1 57.75 11.85H57.65L57.55 9.3H55.5C55.6 10.5 55.6 11.85 55.6 13.4V22.35ZM75.4 9.3H73V17.3C73 17.75 72.9 18.15 72.8 18.5C72.35 19.55 71.25 20.65 69.65 20.65C67.5 20.65 66.75 19 66.75 16.5V9.3H64.35V16.95C64.35 21.55 66.8 22.65 68.85 22.65C71.15 22.65 72.55 21.25 73.15 20.2H73.2L73.35 22.35H75.45C75.35 21.3 75.35 20.15 75.35 18.8V9.3H75.4ZM78.4 21.75C79.3 22.3 80.65 22.65 82.05 22.65C85.15 22.65 86.95 21.05 86.95 18.75C86.95 16.8 85.8 15.65 83.5 14.8C81.8 14.15 81 13.65 81 12.6C81 11.65 81.8 10.8 83.2 10.8C84.4 10.8 85.35 11.25 85.85 11.55L86.45 9.8C85.7 9.35 84.55 9 83.25 9C80.45 9 78.75 10.75 78.75 12.85C78.75 14.4 79.85 15.7 82.2 16.55C83.95 17.2 84.65 17.8 84.65 18.95C84.65 20.05 83.85 20.9 82.1 20.9C80.9 20.9 79.65 20.4 78.95 19.95L78.4 21.75ZM90.55 6.15V9.3H88.55V11.1H90.55V18.25C90.55 19.8 90.8 20.95 91.45 21.65C92 22.3 92.9 22.65 94 22.65C94.9 22.65 95.65 22.5 96.1 22.35L96 20.55C95.7 20.65 95.25 20.7 94.6 20.7C93.3 20.7 92.8 19.8 92.8 18.15V11.1H96.2V9.3H92.8V5.55L90.55 6.15ZM112.9 12.8H106.9V14.7H110.6V20.15C110.05 20.4 109 20.65 107.45 20.65C103.2 20.65 100.45 17.9 100.45 13.3C100.45 8.75 103.35 6 107.75 6C109.6 6 110.8 6.35 111.75 6.8L112.3 4.9C111.5 4.5 109.85 4.05 107.75 4.05C101.65 4.05 97.9 8 97.9 13.45C97.9 16.3 98.85 18.7 100.45 20.25C102.25 21.95 104.5 22.65 107.25 22.65C109.7 22.65 111.8 22.05 112.85 21.65V12.8H112.9ZM122.05 9C118.45 9 115.55 11.55 115.55 15.95C115.55 20.1 118.3 22.65 121.8 22.65C124.95 22.65 128.3 20.55 128.3 15.7C128.35 11.7 125.8 9 122.05 9ZM122 10.75C124.8 10.75 125.9 13.55 125.9 15.75C125.9 18.7 124.2 20.85 121.95 20.85C119.65 20.85 118 18.7 118 15.85C118 13.35 119.2 10.75 122 10.75Z" fill="white"/>
</g>
<defs>
<clipPath id="clip0_1_216">
<rect width="128.35" height="25" fill="white"/>
</clipPath>
</defs>
</svg>
