<svg width="111" height="27" viewBox="0 0 111 27" fill="none" xmlns="http://www.w3.org/2000/svg">
<g opacity="0.7" clip-path="url(#clip0_1_218)">
<path d="M15.067 14.7958C17.605 15.9838 20.251 16.5778 22.465 16.4698C22.465 16.4698 22.465 16.4698 22.519 16.4698L22.681 0.701818C22.681 0.161818 22.087 -0.216182 21.601 0.107818L8.31699 9.07182C9.34299 11.1238 11.827 13.2838 15.067 14.7958Z" fill="white"/>
<path d="M21.8704 17.9817C19.5484 17.9817 16.9564 17.3337 14.4184 16.1457C10.9084 14.5257 8.31641 12.2037 7.07441 9.88165L0.324411 14.4717C-0.215589 14.8497 0.000410804 15.6597 0.594411 15.7137L11.9344 17.2257C12.5824 17.3337 13.2304 17.6577 13.6624 18.1437L21.1684 26.7297C21.6004 27.2157 22.3564 26.8917 22.3564 26.2977L22.4644 17.9277C22.2484 17.9817 22.0864 17.9817 21.8704 17.9817Z" fill="white"/>
<path d="M22.7339 16.3078C20.4119 16.3078 17.8199 15.6598 15.2819 14.4718C9.34195 11.7178 5.88595 6.91183 7.45195 3.56383C9.01795 0.215833 14.9039 -0.216167 20.8439 2.53783C22.7879 3.45583 24.57 4.64383 25.9199 5.93983C26.2439 6.20983 26.2439 6.69583 25.9739 7.01983C25.7039 7.34383 25.2179 7.34383 24.8939 7.07383C23.5979 5.88583 21.978 4.80583 20.196 3.94183C15.228 1.61983 9.98995 1.78183 8.85595 4.26583C7.66795 6.74983 10.9619 10.8538 15.9299 13.1758C18.4679 14.3638 21.114 14.9578 23.328 14.8498C25.38 14.7418 26.7839 14.0398 27.3239 12.9058C27.8639 11.7178 27.3239 10.3678 26.7839 9.39583C26.5679 9.01783 26.6759 8.58583 27.0539 8.36983C27.4319 8.15383 27.8639 8.26183 28.0799 8.63983C29.1059 10.4218 29.3219 12.1498 28.6739 13.4998C27.9179 15.1738 26.028 16.1458 23.382 16.3078C23.1659 16.3078 22.9499 16.3078 22.7339 16.3078Z" fill="white"/>
<path d="M42.2838 15.066V12.69H46.5498V14.472C46.5498 17.064 46.1718 19.008 45.3618 20.466C44.5518 21.87 43.4718 22.572 42.0678 22.572C41.3658 22.572 40.7178 22.356 40.1238 21.978C39.5298 21.6 39.0438 21.006 38.6118 20.196C38.1798 19.386 37.9098 18.414 37.7478 17.226C37.5858 16.038 37.5318 14.472 37.5318 12.474C37.5318 8.85599 37.8558 6.20999 38.5038 4.58999C39.1518 2.91599 40.1778 2.10599 41.5278 2.10599C42.2838 2.10599 43.0398 2.48399 43.6878 3.18599V2.37599H46.0638V8.80199H43.6878C43.6878 6.04799 43.1478 4.64399 42.0678 4.64399C41.6898 4.64399 41.3658 4.80599 41.1498 5.18399C40.9338 5.56199 40.8258 6.26399 40.7178 7.28999C40.6098 8.31599 40.6098 9.93599 40.6098 12.042C40.6098 14.364 40.6638 16.092 40.7178 17.118C40.7718 18.198 40.9338 18.9 41.1498 19.278C41.3658 19.656 41.6898 19.872 42.1218 19.872C42.7698 19.872 43.1478 19.44 43.3098 18.63C43.4718 17.82 43.5798 16.578 43.5798 14.958H42.2838V15.066Z" fill="white"/>
<path d="M57.1878 19.98V22.248H53.6238V21.06H53.5698C53.0298 21.978 52.2738 22.41 51.3018 22.41C50.4378 22.41 49.7358 22.032 49.1418 21.222C48.6018 20.412 48.3318 19.386 48.3318 18.144C48.3318 16.74 48.6558 15.66 49.2498 14.904C49.8438 14.148 50.6538 13.77 51.6258 13.77C52.3818 13.77 53.0838 14.094 53.6238 14.742V12.366C53.6238 11.448 53.5158 10.854 53.2998 10.638C53.0838 10.422 52.7598 10.26 52.3818 10.26C51.5718 10.26 51.0858 10.854 51.0318 12.042L48.7638 11.394C48.9258 10.368 49.3578 9.55801 50.0058 8.96401C50.6538 8.37001 51.5178 8.10001 52.4898 8.10001C53.5698 8.10001 54.4338 8.42401 55.1358 9.12601C55.8378 9.82801 56.1618 10.746 56.1618 11.934V19.98H57.1878ZM53.6238 19.548V16.524C53.2458 16.092 52.8678 15.876 52.3818 15.876C51.4638 15.876 50.9778 16.632 50.9778 18.144C50.9778 19.602 51.4638 20.304 52.3818 20.304C52.8678 20.25 53.2458 20.034 53.6238 19.548Z" fill="white"/>
<path d="M58.2125 22.248V19.98H59.2385V10.692H58.1585V8.42396H61.7225V9.66596H61.7765C62.3705 8.74796 63.0725 8.26196 63.9365 8.26196C64.8005 8.26196 65.4485 8.74796 65.9345 9.66596C66.5825 8.74796 67.3385 8.26196 68.2565 8.26196C69.9845 8.26196 70.8485 9.50396 70.8485 12.042V19.98H71.8745V22.248H68.3645V12.096C68.3645 11.502 68.3105 11.124 68.2025 10.854C68.0945 10.638 67.8785 10.53 67.5545 10.53C67.2305 10.53 66.9065 10.692 66.6365 10.962C66.3665 11.232 66.2585 11.394 66.2585 11.502V19.98H67.2845V22.248H63.7745V12.096C63.7745 11.502 63.7205 11.124 63.6125 10.908C63.5045 10.692 63.2885 10.53 62.9645 10.53C62.5325 10.53 62.1005 10.854 61.7225 11.502V19.98H62.7485V22.248H58.2125Z" fill="white"/>
<path d="M83.485 2.37567V9.66567H81.379v2.48167H79.705V19.8717H81.271V22.2477H75.331V19.8717H76.897v2.48167H75.223V9.66567H73.117V2.37567H83.485Z" fill="white"/>
<path d="M87.0493 22.5717C85.7533 22.5717 84.8353 21.9777 84.2413 20.7897C83.6473 19.6017 83.3233 17.7657 83.3233 15.2817C83.3233 12.7977 83.6473 10.9617 84.2413 9.77375C84.8353 8.58575 85.8073 8.04575 87.0493 8.04575C89.5333 8.04575 90.8293 10.4757 90.8293 15.3357C90.8293 20.1957 89.5333 22.5717 87.0493 22.5717ZM87.0493 10.3677C86.6173 10.3677 86.2933 10.6917 86.1853 11.3397C86.0233 11.9877 85.9693 13.2837 85.9693 15.2817C85.9693 16.7397 86.0233 17.8197 86.0773 18.5217C86.1313 19.2237 86.2393 19.7097 86.4013 19.9257C86.5633 20.1417 86.7793 20.2497 87.1033 20.2497C87.5893 20.2497 87.9133 19.8717 88.0753 19.1157C88.1833 18.3597 88.2913 17.0637 88.2913 15.2817C88.2913 13.2837 88.2373 11.9877 88.0753 11.3397C87.8053 10.6917 87.5353 10.3677 87.0493 10.3677Z" fill="white"/>
<path d="M100.385 8.42395V19.9799H101.519V22.2479H97.9554V21.1139H97.9014C97.3074 21.9779 96.6054 22.3559 95.7954 22.3559C94.2294 22.3559 93.4734 21.2219 93.4734 18.9539V10.6919H92.3394V8.42395H95.9574V18.6299C95.9574 19.1699 96.0114 19.5479 96.1194 19.8179C96.2274 20.0339 96.4434 20.1419 96.7674 20.1419C97.0914 20.1419 97.3614 19.9799 97.6314 19.7099C97.9014 19.3859 98.0094 19.2239 98.0094 19.1699V10.6919H96.8214V8.42395H100.385Z" fill="white"/>
<path d="M108.377 17.2258L110.591 18.1978C110.537 19.6018 110.213 20.6818 109.565 21.4918C108.917 22.2478 108.053 22.6258 107.027 22.6258C105.623 22.6258 104.597 22.0858 104.003 20.9518C103.409 19.8718 103.085 17.9818 103.085 15.3898C103.085 12.9058 103.355 11.0698 103.841 9.98983C104.327 8.90983 105.191 8.31583 106.271 8.31583C107.135 8.31583 107.783 8.74783 108.269 9.61183H108.323V8.47783H110.591V13.4998H108.323C108.323 12.3658 108.215 11.6098 107.999 11.1778C107.783 10.7458 107.459 10.5298 106.973 10.5298C106.433 10.5298 106.109 10.7998 105.947 11.3938C105.785 11.9878 105.677 12.9598 105.677 14.4178V16.5238C105.677 17.9818 105.785 19.0078 106.001 19.5478C106.217 20.0878 106.541 20.4118 107.027 20.4118C107.513 20.4118 107.891 20.1958 108.107 19.7638C108.269 19.2238 108.377 18.4138 108.377 17.2258Z" fill="white"/>
</g>
<defs>
<clipPath id="clip0_1_218">
<rect width="110.592" height="27" fill="white"/>
</clipPath>
</defs>
</svg>
