<svg width="129" height="25" viewBox="0 0 129 25" fill="none" xmlns="http://www.w3.org/2000/svg">
<g opacity="0.7" clip-path="url(#clip0_1_230)">
<path d="M19.8 2.35C22.95 4.6 25 8.3 25 12.5C25 16.7 22.9 20.45 19.7 22.7C16.5 20.5 14.4 16.75 14.4 12.55C14.4 8.3 16.55 4.55 19.8 2.35ZM12.65 12.55C12.65 8 14.85 3.95 18.2 1.35C16.5 0.5 14.55 0 12.5 0C5.6 0 0 5.6 0 12.5C0 19.4 5.6 25 12.5 25C14.5 25 16.45 24.5 18.1 23.65C14.8 21.1 12.65 17.05 12.65 12.55ZM39 12.55C39 5.8 33.5 0.3 26.7 0.3C19.95 0.3 14.45 5.8 14.45 12.55C14.45 19.3 19.95 24.8 26.7 24.8C33.5 24.85 39 19.35 39 12.55ZM37.25 12.55C37.25 18.35 32.5 23.1 26.7 23.1C20.9 23.1 16.15 18.35 16.15 12.55C16.15 6.75 20.9 2 26.7 2C32.55 2 37.25 6.75 37.25 12.55ZM45.5 21.9C46.3 22 47.55 22.1 49.15 22.1C52.1 22.1 54.15 21.55 55.45 20.4C56.35 19.5 57 18.3 57 16.75C57 14.05 55 12.6 53.25 12.2V12.15C55.15 11.45 56.35 9.9 56.35 8.15C56.35 6.7 55.8 5.65 54.85 4.95C53.7 4.05 52.2 3.65 49.85 3.65C48.2 3.65 46.6 3.8 45.55 4.05V21.9H45.5ZM47.85 5.55C48.25 5.45 48.85 5.4 49.95 5.4C52.35 5.4 53.95 6.25 53.95 8.35C53.95 10.1 52.5 11.4 50 11.4H47.85V5.55ZM47.85 13.2H49.8C52.35 13.2 54.5 14.25 54.5 16.7C54.5 19.35 52.25 20.25 49.85 20.25C49 20.25 48.35 20.2 47.9 20.15V13.2H47.85ZM71 8.85H68.6V16.85C68.6 17.3 68.5 17.7 68.4 18.05C67.95 19.1 66.85 20.2 65.25 20.2C63.1 20.2 62.35 18.55 62.35 16.05V8.85H60V16.5C60 21.1 62.45 22.2 64.5 22.2C66.8 22.2 68.2 20.8 68.8 19.75H68.85L69 21.9H71.1C71 20.85 71 19.7 71 18.35V8.85ZM74.95 21.95H77.35V2.75H74.95V21.95ZM81.3 21.95H83.7V2.75H81.3V21.95ZM87.75 21.95H90.1V14.05H92.3C94.45 14.15 95.4 15.1 95.95 17.6C96.45 19.85 96.85 21.45 97.15 21.95H99.6C99.2 21.25 98.8 19.5 98.2 16.95C97.75 15.05 96.95 13.75 95.55 13.3V13.2C97.45 12.55 99 10.95 99 8.55C99 7.15 98.5 5.9 97.55 5.1C96.4 4.05 94.8 3.6 92.3 3.6C90.7 3.6 89 3.75 87.8 4V21.95H87.75ZM90.1 5.65C90.5 5.55 91.3 5.45 92.4 5.45C94.9 5.5 96.6 6.5 96.6 8.85C96.6 10.95 95 12.3 92.5 12.3H90.1V5.65ZM113.15 8.85H110.75V16.85C110.75 17.3 110.65 17.7 110.55 18.05C110.1 19.1 109 20.2 107.4 20.2C105.25 20.2 104.5 18.55 104.5 16.05V8.85H102.1V16.5C102.1 21.1 104.55 22.2 106.6 22.2C108.9 22.2 110.3 20.8 110.9 19.75H110.95L111.1 21.9H113.2C113.1 20.85 113.1 19.7 113.1 18.35V8.85H113.15ZM117.1 21.95H119.5V14.1C119.5 13.7 119.55 13.3 119.65 13C120.05 11.7 121.25 10.55 122.85 10.55C125.1 10.55 125.85 12.3 125.85 14.4V21.95H128.25V14.15C128.25 9.65 125.45 8.6 123.65 8.6C121.5 8.6 120 9.8 119.35 11.05H119.3L119.15 8.9H117.05C117.15 10 117.15 11.1 117.15 12.45V21.95H117.1Z" fill="white"/>
</g>
<defs>
<clipPath id="clip0_1_230">
<rect width="128.2" height="25" fill="white"/>
</clipPath>
</defs>
</svg>
