<svg width="122" height="28" viewBox="0 0 122 28" fill="none" xmlns="http://www.w3.org/2000/svg">
<g opacity="0.7" clip-path="url(#clip0_1_232)">
<path d="M26.46 13.2533H0C0 5.92667 5.92667 0 13.2533 0C20.58 0 26.46 5.92667 26.46 13.2533ZM25.0133 14.7467C25.0133 21.2333 19.74 26.5533 13.2067 26.5533C6.72 26.5533 1.4 21.28 1.4 14.7467H0C0 22.0733 5.92667 28 13.2533 28C20.58 28 26.5067 22.0733 26.5067 14.7467H25.0133ZM13.2533 24.6867C18.7133 24.6867 23.1933 20.2533 23.1933 14.7467H21.7467C21.7467 19.4133 17.9667 23.24 13.2533 23.24C8.58667 23.24 4.76 19.46 4.76 14.7467H3.31333C3.31333 20.2533 7.74667 24.6867 13.2533 24.6867ZM54.8333 4.57333C54.5067 4.76 54.0867 4.85333 53.48 4.85333C52.5933 4.85333 51.0067 4.66667 48.6267 4.29333C46.2933 3.92 44.66 3.73333 43.7267 3.73333C42.42 3.73333 41.2067 3.96667 40.18 4.48C39.1533 4.99333 38.3133 5.69333 37.66 6.62667C37.1933 7.32667 36.82 8.30667 36.4933 9.56667L37.0067 9.84667C37.3333 8.86667 37.66 8.12 38.08 7.65333C38.5 7.14 39.06 6.76667 39.8067 6.48667C40.5533 6.20667 41.2533 6.06667 41.86 6.11333L43.54 6.20667C42.4667 6.95333 41.6267 7.65333 41.02 8.30667C40.0867 9.33333 39.3867 10.36 38.8733 11.48C38.4067 12.6 38.1267 13.7667 38.1267 14.98C38.1267 16.1933 38.36 17.2667 38.78 18.2C39.2467 19.1333 39.8067 19.9733 40.5067 20.6267C41.2067 21.28 41.9533 21.7933 42.7933 22.1667C44.24 22.82 45.78 23.1 47.46 23.1C49.14 23.1 50.68 22.7733 51.94 22.0733C53.2 21.3733 54.2733 20.4867 55.1133 19.32C55.6267 18.62 56.0933 17.64 56.4667 16.4733L55.9533 16.24C55.3 17.4533 54.5533 18.34 53.76 18.9933C52.9667 19.6467 51.8933 20.16 50.5867 20.5333V7.23333C51.1933 7.28 51.7067 7.32667 52.1733 7.32667C52.9667 7.32667 53.7133 7.18667 54.32 6.90667C54.9267 6.62667 55.3933 6.25333 55.72 5.74C56.0467 5.22667 56.28 4.57333 56.4667 3.73333L56 3.31333C55.5333 4.01333 55.16 4.43333 54.8333 4.57333ZM45.08 16.1467C45.08 17.1733 44.9867 17.8733 44.8467 18.2C44.7067 18.5267 44.3333 18.9933 43.68 19.5067C41.6733 17.9667 40.6467 15.9133 40.6467 13.4867C40.6467 12.04 41.02 10.64 41.7667 9.28667C42.3267 8.26 43.1667 7.28 44.38 6.25333L45.08 6.3V16.1467ZM50.0267 20.72C49.28 20.8133 48.6733 20.86 48.3 20.86C47.5533 20.86 46.8067 20.7667 46.0133 20.5333C45.5467 20.3933 44.94 20.16 44.24 19.7867C45.7333 18.62 46.7133 17.7333 47.18 17.1733C47.46 16.8467 47.6467 16.5667 47.6933 16.3333C47.74 16.1 47.7867 15.4933 47.7867 14.56V6.72C48.44 6.86 49.1867 6.95333 50.0267 7.09333V20.72ZM61.7867 11.5733C61.7867 11.1067 61.6933 10.7333 61.5067 10.4533C61.2267 10.0333 60.7133 9.52 59.9667 8.96L57.2133 11.34L57.54 11.7133C57.8667 11.34 58.1467 11.2 58.3333 11.2C58.52 11.2 58.66 11.2933 58.8467 11.5267C58.9867 11.76 59.08 12.18 59.08 12.88V18.2933C59.08 19.0867 59.0333 19.6 58.8933 19.88C58.7533 20.16 58.52 20.44 58.1467 20.72V21C58.7067 21.14 59.2667 21.3733 59.7333 21.6533C60.2 21.9333 60.8067 22.4 61.5533 23.0533L64.96 20.3467L64.6333 19.9267L63.28 21L61.7867 19.9267V12.2733L63.0933 11.06L64.7733 13.16L66.78 11.3867L64.7733 9.00667L61.7867 11.5733ZM77.0933 10.1267C77 10.1733 76.86 10.22 76.6733 10.22C76.2533 10.22 75.6933 10.1267 74.9467 9.89333C74.2 9.66 73.5 9.38 72.8467 9.00667C72.0533 9.84667 71.12 10.22 70.0933 10.22C69.9067 10.22 69.6733 10.22 69.3467 10.1733L69.16 10.5L70.7467 13.9067C69.6733 15.12 68.9267 16.24 68.5067 17.1267C68.18 17.8267 67.9933 18.5733 67.9933 19.3667C67.9933 20.58 68.74 21.7933 70.28 23.0067L74.2933 19.8333C74.34 20.58 74.4333 21.1867 74.6667 21.6067C74.9 22.0267 75.3667 22.4933 76.02 23.0067L78.82 20.58L78.4933 20.16C78.1667 20.44 77.98 20.58 77.9333 20.6267C77.84 20.6733 77.7467 20.72 77.6533 20.72C77.4667 20.72 77.3267 20.6267 77.1867 20.3467C77.0467 20.1133 77 19.5067 77 18.5733V13.0667C77 12.4133 77.0467 11.8533 77.1867 11.48C77.3267 11.1067 77.6067 10.5 78.0733 9.8L77.6067 9.61333C77.3267 9.89333 77.1867 10.08 77.0933 10.1267ZM74.2467 15.4467L71.3533 14.0933L69.7667 10.6867L74.2933 12.0867V15.4467H74.2467ZM74.2467 19.2733L72.24 20.9067C70.9333 19.9733 70.28 18.8067 70.28 17.36C70.28 16.5667 70.5133 15.5867 71.0267 14.5133L74.2467 16.0067V19.2733ZM80.0333 7.7L83.5333 10.08C83.02 10.5 82.18 10.8733 80.9667 11.2V18.1067C80.9667 18.9933 80.92 19.5533 80.8267 19.8333C80.7333 20.1133 80.5467 20.3933 80.22 20.6733V20.9067C81.1533 21 81.9933 21.2333 82.8333 21.56C83.6267 21.8867 84.56 22.3533 85.5867 23.0533C86.24 22.54 86.8 22.12 87.36 21.7933C87.92 21.4667 88.76 21.0933 89.8333 20.6733V11.8067C89.8333 11.2 89.88 10.8267 89.9267 10.64C89.9733 10.4533 90.1133 10.22 90.2533 9.98667V9.42667C89.88 9.56667 89.6467 9.75333 89.46 9.89333C89.2733 10.08 89.1333 10.3133 88.9933 10.64L80.0333 4.48V7.7ZM87.1733 20.9533L83.72 19.4133V11.2467C83.9533 11.1067 84.2333 10.92 84.4667 10.7333L87.1733 12.6V20.9533ZM95.34 10.4067C94.78 10.64 94.1267 10.92 93.2867 11.2467V18.8067C93.2867 19.6933 93.24 20.2533 93.1467 20.4867C93.0533 20.7667 92.8667 20.9533 92.54 21.14V21.4667C93.5667 21.7 94.4067 21.8867 94.9667 22.12C95.5267 22.3067 96.2733 22.68 97.1133 23.1467L101.407 20.16L101.127 19.7867L99.0733 21.1867L95.9933 19.9733V17.5467L101.92 13.3933L98.1867 9.05333C96.6933 9.75333 95.76 10.22 95.34 10.4067ZM99.4467 14.1867L95.9467 16.6133V10.5933L96.1333 10.5L99.4467 14.1867ZM104.16 11.2933V18.8067C104.16 19.5533 104.067 20.0667 103.927 20.44C103.833 20.6733 103.647 20.9067 103.32 21.14V21.4667C104.207 21.6533 104.907 21.84 105.513 22.0733C106.12 22.3067 106.82 22.6333 107.66 23.1467L110.927 20.72L110.787 20.16L109.387 21.14L106.773 19.9733V11.5267L109.34 13.02L110.74 10.9667L107.333 9.00667C106.353 10.0333 105.233 10.8267 104.16 11.2933ZM117.04 9.00667C115.873 9.98667 114.52 10.7333 112.887 11.2933V18.5267C112.887 19.2267 112.84 19.74 112.7 20.0667C112.607 20.3 112.42 20.5333 112.047 20.8133L112.187 21.0933C112.98 21.14 113.727 21.28 114.333 21.4667C115.173 21.7467 116.247 22.3067 117.507 23.1C117.927 22.7267 118.347 22.4 118.813 22.1667C119.42 21.84 120.353 21.3733 121.707 20.86V10.92C119.84 10.4533 118.3 9.84667 117.04 9.00667ZM115.593 11.2467C116.06 11.34 116.433 11.4333 116.76 11.5267C117.227 11.6667 117.973 12.04 119.047 12.5067V20.9067L115.593 19.5067V11.2467Z" fill="white"/>
</g>
<defs>
<clipPath id="clip0_1_232">
<rect width="121.707" height="28" fill="white"/>
</clipPath>
</defs>
</svg>
