<svg width="138" height="27" viewBox="0 0 138 27" fill="none" xmlns="http://www.w3.org/2000/svg">
<g opacity="0.7" clip-path="url(#clip0_1_234)">
<path opacity="0.5" d="M26.6753 26.8476L40.032 13.4909L26.6753 0.134293L13.3187 13.4909L26.6753 26.8476Z" fill="white"/>
<path d="M13.3368 26.8476L26.6935 13.4909L13.3368 0.134291L-0.0198129 13.4909L13.3368 26.8476Z" fill="white"/>
<path d="M63.8171 8.75096C64.2973 9.39127 64.5641 10.1917 64.5641 11.0988C64.5641 12.3794 64.0839 13.3933 63.0701 14.0869C62.0562 14.7806 60.6155 15.1541 58.6946 15.1541H51.2776V0.213409H58.2677C60.0286 0.213409 61.4159 0.533568 62.323 1.22724C63.2835 1.92092 63.7638 2.88139 63.7638 4.05531C63.7638 4.80234 63.6037 5.44266 63.2302 6.02961C62.91 6.61657 62.4298 7.04345 61.8428 7.36361C62.6432 7.63041 63.3369 8.11064 63.8171 8.75096ZM54.0523 2.40116V6.50985H58.0009C58.9614 6.50985 59.7084 6.34977 60.242 5.97625C60.7756 5.60274 61.0424 5.1225 61.0424 4.42882C61.0424 3.73515 60.7756 3.25491 60.242 2.88139C59.7084 2.50788 58.9614 2.3478 58.0009 2.3478H54.0523V2.40116ZM61.7361 10.832C61.7361 9.39127 60.6689 8.6976 58.5345 8.6976H54.0523V13.0197H58.5345C60.6689 12.9664 61.7361 12.2727 61.7361 10.832Z" fill="white"/>
<path d="M67.5 0.21344H70.2747V15.1542H67.5V0.21344Z" fill="white"/>
<path d="M87.5629 0.213409V15.1541H85.2685L77.0511 5.01578V15.1541H74.2764V0.213409H76.5708L84.7882 10.3517V0.213409H87.5629Z" fill="white"/>
<path d="M101.277 11.6858H93.8063L92.3122 15.1542H89.4308L96.1541 0.21344H98.8754L105.599 15.1542H102.717L101.277 11.6858ZM100.37 9.49802L97.5415 2.98814L94.7668 9.49802H100.37Z" fill="white"/>
<path d="M120.858 0.213409V15.1541H118.564L110.346 5.01578V15.1541H107.572V0.213409H109.866L118.083 10.3517V0.213409H120.858Z" fill="white"/>
<path d="M127.689 14.3538C126.462 13.7134 125.501 12.753 124.808 11.6324C124.114 10.4585 123.794 9.12451 123.794 7.68379C123.794 6.24308 124.167 4.90909 124.861 3.73518C125.555 2.56126 126.515 1.65415 127.743 1.01383C128.97 0.373518 130.304 0 131.851 0C133.079 0 134.199 0.213439 135.213 0.640316C136.227 1.06719 137.08 1.70751 137.774 2.50791L135.96 4.21542C134.893 3.0415 133.559 2.45455 131.958 2.45455C130.944 2.45455 130.037 2.66798 129.183 3.14822C128.33 3.62846 127.743 4.21541 127.262 5.01581C126.782 5.81621 126.569 6.72332 126.569 7.73715C126.569 8.75099 126.782 9.6581 127.262 10.4585C127.743 11.2589 128.33 11.8992 129.183 12.3261C130.037 12.753 130.891 13.0198 131.958 13.0198C133.559 13.0198 134.893 12.4328 135.96 11.2589L137.774 12.9664C137.08 13.7668 136.227 14.4071 135.213 14.834C134.199 15.2609 133.079 15.4743 131.851 15.4743C130.25 15.3676 128.916 15.0474 127.689 14.3538Z" fill="white"/>
<path d="M56.881 24.012C57.0944 24.2788 57.2011 24.6523 57.2011 25.0792C57.2011 25.6661 56.9877 26.093 56.5075 26.4132C56.0806 26.7333 55.3869 26.8934 54.5332 26.8934H51.2249V20.1701H54.3731C55.1735 20.1701 55.7604 20.3302 56.1873 20.6503C56.6142 20.9705 56.8276 21.3973 56.8276 21.9309C56.8276 22.2511 56.7743 22.5713 56.6142 22.8381C56.4541 23.1049 56.2407 23.3183 55.9739 23.425C56.3474 23.5317 56.6675 23.7452 56.881 24.012ZM52.4521 21.1305V22.9981H54.213C54.6399 22.9981 54.96 22.9448 55.2268 22.7847C55.4403 22.6246 55.6004 22.4112 55.6004 22.091C55.6004 21.7709 55.4936 21.5574 55.2268 21.3973C55.0134 21.2373 54.6399 21.1839 54.213 21.1839H52.4521V21.1305ZM55.9205 24.9191C55.9205 24.2788 55.4403 23.9586 54.4798 23.9586H52.4521V25.8796H54.4798C55.4403 25.9329 55.9205 25.6128 55.9205 24.9191Z" fill="white"/>
<path d="M60.1897 20.1701H61.417V25.8262H64.9387V26.8934H60.1897V20.1701Z" fill="white"/>
<path d="M68.7269 26.5197C68.1933 26.1995 67.7665 25.826 67.4463 25.2924C67.1261 24.7588 66.9661 24.1718 66.9661 23.5315C66.9661 22.8912 67.1261 22.3043 67.4463 21.7707C67.7665 21.2371 68.1933 20.8102 68.7269 20.5434C69.2605 20.2232 69.9009 20.1165 70.5945 20.1165C71.2882 20.1165 71.8752 20.2766 72.4621 20.5434C72.9957 20.8636 73.4226 21.2371 73.7427 21.7707C74.0629 22.3043 74.223 22.8912 74.223 23.5315C74.223 24.1718 74.0629 24.7588 73.7427 25.2924C73.4226 25.826 72.9957 26.2529 72.4621 26.5197C71.9285 26.8398 71.2882 26.9466 70.5945 26.9466C69.9009 26.9999 69.2605 26.8398 68.7269 26.5197ZM71.7684 25.6126C72.142 25.3991 72.4088 25.1323 72.6222 24.7588C72.8356 24.3853 72.9424 24.0118 72.9424 23.5315C72.9424 23.0513 72.8356 22.6778 72.6222 22.3043C72.4088 21.9307 72.142 21.6639 71.7684 21.4505C71.3949 21.2371 71.0214 21.1303 70.5412 21.1303C70.1143 21.1303 69.6874 21.2371 69.3139 21.4505C68.9404 21.6639 68.6736 21.9307 68.4601 22.3043C68.2467 22.6778 68.14 23.0513 68.14 23.5315C68.14 24.0118 68.2467 24.3853 68.4601 24.7588C68.6736 25.1323 68.9404 25.3991 69.3139 25.6126C69.6874 25.826 70.0609 25.9327 70.5412 25.9327C71.0214 25.8794 71.4483 25.7726 71.7684 25.6126Z" fill="white"/>
<path d="M78.4399 26.5197C77.9064 26.1995 77.4795 25.826 77.1593 25.2924C76.8392 24.7588 76.6791 24.1718 76.6791 23.5315C76.6791 22.8912 76.8392 22.3043 77.1593 21.7707C77.4795 21.2371 77.9064 20.8102 78.4399 20.5434C78.9735 20.2232 79.6139 20.1165 80.2542 20.1165C80.7878 20.1165 81.3214 20.2232 81.7482 20.3833C82.2285 20.5968 82.602 20.8636 82.9222 21.2371L82.1218 21.9841C81.6415 21.4505 81.0546 21.1837 80.3075 21.1837C79.8273 21.1837 79.4538 21.2904 79.0803 21.5039C78.7067 21.7173 78.44 21.9841 78.2265 22.3576C78.0131 22.7311 77.9064 23.1047 77.9064 23.5849C77.9064 24.0651 78.0131 24.4386 78.2265 24.8122C78.44 25.1857 78.7067 25.4525 79.0803 25.6659C79.4538 25.8794 79.8807 25.9861 80.3075 25.9861C81.0012 25.9861 81.6415 25.7193 82.1218 25.1857L82.9222 25.9327C82.602 26.3062 82.2285 26.573 81.7482 26.7865C81.268 26.9999 80.7878 27.0533 80.2542 27.0533C79.6139 26.9999 78.9735 26.8398 78.4399 26.5197Z" fill="white"/>
<path d="M88.0966 24.0653L87.0294 25.1859V26.8934H85.8021V20.1701H87.0294V23.6385L90.3377 20.1701H91.725L88.897 23.1582L91.8851 26.8934H90.4444L88.0966 24.0653Z" fill="white"/>
<path d="M99.9951 26.5197C99.4615 26.1995 99.0346 25.826 98.7145 25.2924C98.3943 24.7588 98.2343 24.1718 98.2343 23.5315C98.2343 22.8912 98.3943 22.3043 98.7145 21.7707C99.0346 21.2371 99.4615 20.8102 99.9951 20.5434C100.529 20.2232 101.169 20.1165 101.809 20.1165C102.343 20.1165 102.877 20.2232 103.303 20.3833C103.784 20.5968 104.157 20.8636 104.477 21.2371L103.677 21.9841C103.197 21.4505 102.61 21.1837 101.863 21.1837C101.382 21.1837 101.009 21.2904 100.635 21.5039C100.262 21.7173 99.9951 21.9841 99.7817 22.3576C99.5682 22.7311 99.4615 23.1047 99.4615 23.5849C99.4615 24.0651 99.5682 24.4386 99.7817 24.8122C99.9951 25.1857 100.262 25.4525 100.635 25.6659C101.009 25.8794 101.436 25.9861 101.863 25.9861C102.556 25.9861 103.197 25.7193 103.677 25.1857L104.477 25.9327C104.157 26.3062 103.784 26.573 103.303 26.7865C102.823 26.9999 102.343 27.0533 101.809 27.0533C101.169 26.9999 100.529 26.8398 99.9951 26.5197Z" fill="white"/>
<path d="M113.336 20.1701V26.8934H112.109V24.012H108.641V26.8934H107.413V20.1701H108.641V22.9448H112.109V20.1701H113.336Z" fill="white"/>
<path d="M121.127 25.346H117.765L117.125 26.8934H115.844L118.886 20.1701H120.113L123.155 26.8934H121.874L121.127 25.346ZM120.753 24.3321L119.473 21.3973L118.192 24.3321H120.753Z" fill="white"/>
<path d="M125.61 20.1701H126.837V26.8934H125.61V20.1701Z" fill="white"/>
<path d="M136.282 20.1701V26.8934H135.268L131.587 22.3578V26.8934H130.359V20.1701H131.373L135.055 24.7056V20.1701H136.282Z" fill="white"/>
</g>
<defs>
<clipPath id="clip0_1_234">
<rect width="137.721" height="27" fill="white"/>
</clipPath>
</defs>
</svg>
