<svg width="136" height="27" viewBox="0 0 136 27" fill="none" xmlns="http://www.w3.org/2000/svg">
<g opacity="0.7" clip-path="url(#clip0_1_253)">
<path opacity="0.5" d="M31.5353 19.2241C31.4273 19.0081 23.5433 3.40208 23.4353 3.18608C23.0033 2.21408 22.3013 1.29608 21.2753 0.75608C18.8453 -0.70192 15.6593 0.162081 14.2553 2.59208C13.2833 4.26608 13.3373 6.26408 14.3093 7.83008C14.4173 8.04608 21.9233 23.0041 22.0853 23.2201C22.1933 23.4361 22.3013 23.6521 22.4093 23.8681C22.8413 24.8401 23.5433 25.7581 24.5693 26.2981C26.9993 27.7561 30.1853 26.8921 31.5893 24.4621C32.5613 22.7881 32.5073 20.7901 31.5353 19.2241Z" fill="white"/>
<path d="M22.464 8.64C23.328 7.722 23.868 6.48 23.868 5.13C23.868 2.268 21.546 0 18.738 0C17.01 0 15.444 0.864 14.526 2.214C14.31 2.376 1.512 18.144 1.404 18.36C0.54 19.278 0 20.52 0 21.87C0 24.678 2.322 27 5.13 27C6.858 27 8.424 26.136 9.342 24.786C9.504 24.624 22.302 8.856 22.464 8.64Z" fill="white"/>
<path d="M44.441 8.64C45.305 7.722 45.845 6.48 45.845 5.13C45.845 2.268 43.5231 0 40.715 0C38.987 0 37.421 0.864 36.503 2.214C36.341 2.376 23.543 18.144 23.381 18.36C22.517 19.278 21.9771 20.52 21.9771 21.87C21.9771 24.732 24.2991 27 27.1071 27C28.8351 27 30.401 26.136 31.319 24.786C31.535 24.624 44.333 8.856 44.441 8.64Z" fill="white"/>
<path d="M70.9035 13.7702C69.7155 14.9042 67.9335 15.4982 65.5035 15.4982H61.5615V24.1382H58.8615V3.45618H65.5575C67.8795 3.45618 69.6615 3.99618 70.9035 5.13018C72.1455 6.26418 72.7394 7.72218 72.7394 9.50418C72.6854 11.2322 72.0915 12.6362 70.9035 13.7702ZM68.8515 12.3122C69.5535 11.6642 69.9315 10.7462 69.9315 9.50418C69.9315 6.96618 68.4735 5.67018 65.5575 5.67018H61.5615V13.2842H65.5575C67.0155 13.2842 68.1495 12.9602 68.8515 12.3122Z" fill="white"/>
<path d="M79.0041 23.382C77.7621 22.68 76.7901 21.708 76.0881 20.412C75.3861 19.116 75.0081 17.658 75.0081 15.984C75.0081 14.31 75.3861 12.852 76.0881 11.556C76.7901 10.26 77.8161 9.28795 79.0581 8.63995C80.3001 7.93795 81.7041 7.61395 83.2701 7.61395C84.8361 7.61395 86.1861 7.93795 87.4821 8.63995C88.7241 9.34195 89.6961 10.314 90.4521 11.556C91.154 12.798 91.532 14.31 91.532 15.984C91.532 17.658 91.154 19.17 90.398 20.412C89.642 21.708 88.6701 22.68 87.3741 23.382C86.1321 24.084 84.7281 24.408 83.1621 24.408C81.5961 24.408 80.2461 24.084 79.0041 23.382ZM85.8621 21.33C86.7261 20.898 87.4281 20.196 87.9141 19.278C88.4541 18.36 88.7241 17.28 88.7241 15.93C88.7241 14.58 88.454 13.5 87.968 12.582C87.428 11.664 86.7801 11.016 85.9701 10.53C85.1601 10.098 84.2421 9.88195 83.2701 9.88195C82.2981 9.88195 81.3801 10.098 80.5701 10.53C79.7601 10.962 79.1121 11.664 78.5721 12.582C78.0861 13.5 77.8161 14.58 77.8161 15.93C77.8161 17.28 78.0321 18.36 78.5181 19.278C79.0041 20.196 79.6521 20.844 80.4621 21.33C81.2721 21.762 82.1901 21.978 83.1081 21.978C84.1341 22.032 84.9981 21.816 85.8621 21.33Z" fill="white"/>
<path d="M99.7946 8.316C100.659 7.776 101.739 7.56 103.035 7.56V10.368H102.333C99.3086 10.368 97.7966 11.988 97.7966 15.282V24.138H95.0966V7.884H97.7966V10.53C98.2286 9.558 98.9306 8.856 99.7946 8.316Z" fill="white"/>
<path d="M109.405 10.098V19.71C109.405 20.52 109.567 21.06 109.891 21.384C110.215 21.708 110.809 21.87 111.619 21.87H113.617V24.138H111.241C109.729 24.138 108.595 23.814 107.839 23.112C107.083 22.41 106.705 21.276 106.705 19.71V10.098H104.599V7.884H106.705V3.78H109.405V7.884H113.671V10.098H109.405Z" fill="white"/>
<path d="M117.02 4.69798C116.642 4.31998 116.48 3.88798 116.48 3.40198C116.48 2.86198 116.642 2.42998 117.02 2.10598C117.398 1.72798 117.83 1.56598 118.316 1.56598C118.802 1.56598 119.234 1.72798 119.558 2.10598C119.882 2.48398 120.098 2.91598 120.098 3.40198C120.098 3.94198 119.936 4.37398 119.558 4.69798C119.234 5.07598 118.802 5.23798 118.316 5.23798C117.83 5.23798 117.398 5.02198 117.02 4.69798ZM119.666 7.88398V24.138H116.966V7.88398H119.666Z" fill="white"/>
<path d="M126.63 23.76C125.658 23.328 124.848 22.734 124.308 21.978C123.714 21.222 123.39 20.358 123.336 19.332H126.144C126.198 20.142 126.63 20.79 127.278 21.33C127.98 21.87 128.844 22.086 129.978 22.086C131.004 22.086 131.814 21.87 132.408 21.384C133.002 20.952 133.272 20.358 133.272 19.656C133.272 18.954 132.948 18.414 132.3 18.09C131.652 17.766 130.68 17.388 129.384 17.064C128.196 16.74 127.17 16.416 126.414 16.092C125.658 15.768 125.01 15.282 124.47 14.634C123.93 13.986 123.66 13.122 123.66 12.096C123.66 11.286 123.93 10.476 124.416 9.828C124.902 9.126 125.604 8.586 126.522 8.154C127.44 7.722 128.466 7.56 129.654 7.56C131.436 7.56 132.894 7.992 134.028 8.91C135.162 9.828 135.756 11.07 135.81 12.636H133.11C133.056 11.772 132.732 11.124 132.084 10.584C131.436 10.044 130.626 9.828 129.6 9.828C128.628 9.828 127.872 10.044 127.278 10.476C126.684 10.908 126.414 11.448 126.414 12.096C126.414 12.636 126.576 13.068 126.954 13.392C127.278 13.716 127.71 14.04 128.25 14.202C128.79 14.418 129.492 14.634 130.41 14.904C131.598 15.228 132.516 15.552 133.272 15.822C134.028 16.146 134.622 16.578 135.162 17.226C135.702 17.82 135.972 18.63 135.972 19.656C135.972 20.52 135.702 21.33 135.216 22.086C134.73 22.788 134.028 23.382 133.11 23.76C132.192 24.192 131.166 24.354 130.032 24.354C128.736 24.408 127.656 24.192 126.63 23.76Z" fill="white"/>
</g>
<defs>
<clipPath id="clip0_1_253">
<rect width="135.918" height="27" fill="white"/>
</clipPath>
</defs>
</svg>
