<svg width="125" height="25" viewBox="0 0 125 25" fill="none" xmlns="http://www.w3.org/2000/svg">
<g opacity="0.7" clip-path="url(#clip0_1_265)">
<path d="M2.90088 10.65C4.35088 11.65 6.35088 11.9 8.05088 11.9C10.4009 11.9 12.2009 11.4 13.4509 10.4C14.7009 9.4 15.3009 8.1 15.3009 6.5C15.3009 4.65 14.3009 2.9 12.6009 2.05C12.0509 1.8 11.5009 1.55 10.9009 1.4C10.0509 1.2 9.10088 1.1 8.05088 1.1C5.70088 1.1 3.90088 1.6 2.65088 2.6C1.40088 3.6 0.800881 4.9 0.800881 6.5C0.800881 7.45 1.00088 8.3 1.35088 9C1.75088 9.65 2.25088 10.2 2.90088 10.65ZM6.35088 2.75C6.75088 2.05 7.30088 1.7 8.05088 1.7C8.75088 1.7 9.35088 2.05 9.75088 2.75C10.1509 3.45 10.3509 4.7 10.3509 6.45C10.3509 8.2 10.1509 9.45 9.75088 10.15C9.35088 10.85 8.80088 11.2 8.05088 11.2C7.35088 11.2 6.75088 10.85 6.35088 10.15C5.95088 9.45 5.75088 8.2 5.75088 6.45C5.75088 4.7 5.95088 3.45 6.35088 2.75ZM16.5509 18.8C16.5509 20 16.2509 21.35 15.5009 22.3C14.5009 23.55 13.0009 24.25 11.4509 24.6C9.60088 25 7.75088 25.15 5.85088 24.95C4.20088 24.75 2.10088 24.45 0.800881 23.25C0.350881 22.85 0.000881277 22.3 -0.0491187 21.7C-0.0991187 21.2 0.0508813 20.65 0.350881 20.2C0.650881 19.75 1.05088 19.35 1.55088 19.15C2.30088 18.85 3.20088 18.9 3.85088 19.35C4.50088 19.8 4.95088 20.6 4.95088 21.4C4.95088 22.2 4.55088 23 3.90088 23.45C5.50088 24.05 7.05088 24.35 8.80088 24.25C10.4009 24.15 12.0009 23.75 13.4009 22.95C14.6509 22.2 15.2509 21.25 15.2509 20.15C15.2509 18.75 13.9509 18 11.3009 18H5.10088C3.45088 18 2.20088 17.65 1.35088 17C0.200881 16.1 -0.199119 14.55 0.250881 13.15C0.600881 12.15 1.75088 11.55 2.80088 11.6C2.65088 11.8 2.50088 12.05 2.50088 12.3C2.50088 12.65 2.75088 12.9 3.05088 13.05C3.45088 13.25 4.10088 13.35 5.10088 13.35H11.3509C13.0009 13.35 14.3009 13.85 15.2009 14.8C16.1009 15.75 16.5509 17.1 16.5509 18.8ZM20.4009 2.5C20.4009 3.9 19.3009 5 17.9009 5C16.5009 5 15.4009 3.9 15.4009 2.5C15.4009 1.1 16.5009 0 17.9009 0C19.3009 0 20.4009 1.1 20.4009 2.5ZM32.4509 10.55V9.95L30.0509 6.55V20.4C30.0509 20.7 29.9509 21 29.7009 21.2C29.5009 21.4 29.2009 21.55 28.9009 21.55C28.6009 21.55 28.3009 21.45 28.1009 21.2C27.9009 20.95 27.7509 20.7 27.7509 20.4V3.4H30.7009L33.5009 7.5L36.4009 3.4H39.3009V20.4C39.3009 20.7 39.2009 21 38.9509 21.2C38.7009 21.4 38.4509 21.55 38.1009 21.55C37.8009 21.55 37.5009 21.45 37.3009 21.2C37.0509 20.95 36.9509 20.7 36.9509 20.4V6.65L34.6509 9.95V10.6C34.6509 10.9 34.5509 11.2 34.3009 11.4C34.0509 11.65 33.8009 11.75 33.5009 11.75C33.2009 11.75 32.9009 11.65 32.7009 11.4C32.5509 11.15 32.4509 10.85 32.4509 10.55ZM53.5009 12.7V15.5C53.5009 15.8 53.4009 16.1 53.1509 16.3C52.9009 16.55 52.6509 16.65 52.3509 16.65H44.2009V17.3C44.2009 17.7 44.3509 18 44.7009 18.3L45.3509 18.85C45.7009 19.15 46.0509 19.25 46.4009 19.25H52.3009C52.6009 19.25 52.9009 19.35 53.1009 19.6C53.3509 19.8 53.4509 20.1 53.4509 20.4C53.4509 20.7 53.3509 21 53.1009 21.2C52.8509 21.45 52.6009 21.55 52.3009 21.55H46.3009C45.9009 21.55 45.5009 21.45 45.0509 21.3C44.6009 21.15 44.3009 20.95 44.0509 20.75L43.0009 19.9C42.7009 19.65 42.4009 19.3 42.2009 18.85C42.0009 18.4 41.9009 17.95 41.9009 17.6V12.3C41.9009 12 42.0009 11.6 42.2509 11.1C42.5009 10.6 42.8009 10.2 43.1509 9.9L44.1009 9.15C44.7509 8.65 45.4509 8.4 46.2009 8.4H49.4509C50.2509 8.4 51.0509 8.75 51.7509 9.4L52.6009 10.2C53.2009 10.8 53.5009 11.6 53.5009 12.7ZM44.2509 12.55V14.35H51.2009V12.75C51.2009 12.3 51.0509 12 50.8009 11.75L50.1509 11.15C49.8009 10.85 49.5009 10.75 49.2009 10.75H46.3009C45.9509 10.75 45.6009 10.85 45.3509 11.1L44.7009 11.65C44.4009 11.85 44.2509 12.15 44.2509 12.55ZM64.1009 21.6H61.8009C60.8509 21.6 60.0509 21.25 59.3509 20.6C58.6509 19.95 58.3009 19.1 58.3009 18.15V10.7H57.1009C56.8009 10.7 56.5009 10.6 56.3009 10.35C56.1009 10.15 55.9509 9.85 55.9509 9.55C55.9509 9.25 56.0509 8.95 56.3009 8.75C56.5009 8.55 56.8009 8.4 57.1009 8.4H58.3009V5.6C58.3009 5.3 58.4009 5 58.6509 4.8C58.8509 4.6 59.1509 4.45 59.4509 4.45C59.7509 4.45 60.0009 4.55 60.2509 4.8C60.5009 5.05 60.6009 5.3 60.6009 5.6V8.4H65.2009C65.5009 8.4 65.8009 8.5 66.0009 8.75C66.2509 9 66.3509 9.25 66.3509 9.55C66.3509 9.85 66.2509 10.15 66.0009 10.35C65.7509 10.55 65.5009 10.7 65.2009 10.7H60.5509V18.15C60.5509 18.45 60.6509 18.75 60.9009 18.95C61.1509 19.2 61.4009 19.3 61.7509 19.3H64.0009C64.6009 19.3 65.0009 18.95 65.2009 18.3C65.4009 17.65 65.8009 17.3 66.3509 17.3C66.7009 17.3 66.9509 17.4 67.2009 17.65C67.4009 17.85 67.5009 18.15 67.5009 18.5C67.5009 19.2 67.1509 19.9 66.5009 20.55C65.9509 21.25 65.1009 21.6 64.1009 21.6ZM73.5509 13.3H78.0509C78.3009 13.3 78.6509 13.35 79.1009 13.45L79.0509 11.8C79.0509 11.5 78.9509 11.2 78.7009 11C78.5009 10.8 78.2009 10.65 77.9009 10.65H73.5509C73.2509 10.65 72.9509 10.55 72.7509 10.3C72.5009 10.05 72.4009 9.8 72.4009 9.5C72.4009 9.2 72.5009 8.9 72.7509 8.7C72.9509 8.5 73.2509 8.35 73.5509 8.35H77.9009C78.8509 8.35 79.6509 8.7 80.3509 9.35C81.0009 10 81.3509 10.85 81.4009 11.8L81.7009 20.4C81.7009 20.7 81.6009 21 81.3509 21.2C81.1009 21.4 80.8509 21.55 80.5509 21.55C80.2009 21.55 79.9509 21.45 79.7009 21.2C79.4509 21 79.3509 20.7 79.3509 20.4L77.4009 21.55H73.5009C72.5509 21.55 71.7009 21.2 71.0509 20.55C70.3509 19.9 70.0509 19.05 70.0509 18.1V16.75C70.0509 15.8 70.4009 15 71.0509 14.3C71.8009 13.65 72.6009 13.3 73.5509 13.3ZM79.3009 17.75L79.2509 16.8C79.2509 16.45 79.1509 16.2 78.9009 16C78.6509 15.8 78.4009 15.65 78.1009 15.65H73.5509C73.2509 15.65 72.9509 15.75 72.7509 16C72.5509 16.2 72.4009 16.5 72.4009 16.8V18.1C72.4009 18.4 72.5009 18.7 72.7509 18.9C73.0009 19.15 73.2509 19.25 73.5509 19.25H76.8009L79.3009 17.75ZM88.9009 10.55V9.95L86.5009 6.55V20.4C86.5009 20.7 86.4009 21 86.1509 21.2C85.9509 21.4 85.6509 21.55 85.3509 21.55C85.0509 21.55 84.7509 21.45 84.5509 21.2C84.3509 20.95 84.2009 20.7 84.2009 20.4V3.4H87.1509L89.9509 7.5L92.8509 3.4H95.7509V20.4C95.7509 20.7 95.6509 21 95.4009 21.2C95.1509 21.4 94.9009 21.55 94.5509 21.55C94.2509 21.55 93.9509 21.45 93.7509 21.2C93.5009 20.95 93.4009 20.7 93.4009 20.4V6.65L91.1009 9.95V10.6C91.1009 10.9 91.0009 11.2 90.7509 11.4C90.5009 11.65 90.2509 11.75 89.9509 11.75C89.6509 11.75 89.3509 11.65 89.1509 11.4C89.0009 11.15 88.9009 10.85 88.9009 10.55ZM101.801 13.3H106.301C106.551 13.3 106.901 13.35 107.351 13.45L107.301 11.8C107.301 11.5 107.201 11.2 106.951 11C106.751 10.8 106.451 10.65 106.151 10.65H101.801C101.501 10.65 101.201 10.55 101.001 10.3C100.751 10.05 100.651 9.8 100.651 9.5C100.651 9.2 100.751 8.9 101.001 8.7C101.201 8.5 101.501 8.35 101.801 8.35H106.151C107.101 8.35 107.901 8.7 108.601 9.35C109.251 10 109.601 10.85 109.651 11.8L109.951 20.4C109.951 20.7 109.851 21 109.601 21.2C109.351 21.4 109.101 21.55 108.801 21.55C108.451 21.55 108.201 21.45 107.951 21.2C107.701 21 107.601 20.7 107.601 20.4L105.651 21.55H101.751C100.801 21.55 99.9509 21.2 99.3009 20.55C98.6009 19.9 98.3009 19.05 98.3009 18.1V16.75C98.3009 15.8 98.6509 15 99.3009 14.3C100.001 13.65 100.851 13.3 101.801 13.3ZM107.551 17.75L107.501 16.8C107.501 16.45 107.401 16.2 107.151 16C106.901 15.8 106.651 15.65 106.351 15.65H101.801C101.501 15.65 101.201 15.75 101.001 16C100.801 16.2 100.651 16.5 100.651 16.8V18.1C100.651 18.4 100.751 18.7 101.001 18.9C101.251 19.15 101.501 19.25 101.801 19.25H105.051L107.551 17.75ZM115.701 8.4H120.951C121.751 8.4 122.501 8.65 123.101 9.15C123.751 9.65 124.051 10.1 124.051 10.6C124.051 10.95 123.951 11.2 123.701 11.4C123.451 11.6 123.201 11.7 122.951 11.7C122.601 11.7 122.251 11.55 121.951 11.2C121.651 10.85 121.351 10.7 121.001 10.7H115.801C115.301 10.7 115.051 10.9 115.051 11.35C115.051 11.65 115.201 11.85 115.551 12.05L121.651 14.75C122.251 15 122.801 15.45 123.151 16.05C123.551 16.65 123.751 17.35 123.751 18.05C123.751 19.05 123.401 19.85 122.701 20.55C122.001 21.25 121.201 21.6 120.351 21.6H115.701C114.901 21.6 114.151 21.35 113.451 20.9C112.751 20.4 112.401 19.95 112.401 19.5C112.401 19.2 112.501 18.95 112.751 18.7C112.951 18.45 113.251 18.35 113.601 18.35C113.901 18.35 114.201 18.5 114.551 18.85C114.901 19.2 115.351 19.35 116.001 19.35H120.301C120.651 19.35 120.901 19.2 121.151 18.95C121.401 18.7 121.501 18.4 121.501 18.05C121.501 17.55 121.251 17.15 120.751 16.95L114.601 14.15C114.001 13.9 113.551 13.5 113.251 13C112.951 12.5 112.751 12 112.751 11.45C112.751 10.65 113.051 9.9 113.601 9.3C114.151 8.7 114.851 8.4 115.701 8.4Z" fill="white"/>
</g>
<defs>
<clipPath id="clip0_1_265">
<rect width="124.05" height="25" fill="white"/>
</clipPath>
</defs>
</svg>
