<svg width="132" height="27" viewBox="0 0 132 27" fill="none" xmlns="http://www.w3.org/2000/svg">
<g opacity="0.7" clip-path="url(#clip0_1_267)">
<path d="M10.53 0C4.698 0 0 4.698 0 10.53C0 16.362 4.698 21.06 10.53 21.06V27C10.53 27 21.06 23.274 21.06 10.53C21.06 4.698 16.362 0 10.53 0ZM7.074 10.53C7.074 8.64 8.64 7.074 10.53 7.074C12.42 7.074 13.986 8.64 13.986 10.53C13.986 12.42 12.42 13.986 10.53 13.986C8.64 13.986 7.074 12.42 7.074 10.53ZM44.226 12.852C44.226 12.96 44.226 13.122 44.226 13.23C44.226 13.338 44.226 13.5 44.172 13.608C44.064 14.256 43.902 14.904 43.686 15.552C43.416 16.146 43.146 16.74 42.768 17.28C42.39 17.82 41.958 18.306 41.418 18.738C40.932 19.17 40.338 19.548 39.744 19.818C38.502 20.412 37.206 20.628 35.802 20.574C34.398 20.466 33.156 20.034 32.022 19.278C30.942 18.522 30.078 17.55 29.43 16.362C28.782 15.174 28.512 13.932 28.566 12.582C28.62 11.772 28.728 10.962 29.052 10.152C29.322 9.396 29.7 8.64 30.24 7.992C30.888 7.182 31.644 6.48 32.562 5.994C33.48 5.508 34.452 5.184 35.478 5.022C36.504 4.914 37.53 4.968 38.502 5.238C39.528 5.508 40.392 5.994 41.202 6.588V2.538C41.202 2.106 41.364 1.782 41.634 1.458C41.904 1.188 42.282 1.026 42.714 1.026C43.146 1.026 43.524 1.188 43.794 1.458C44.064 1.728 44.226 2.106 44.226 2.538V12.474V12.852ZM40.014 15.876C40.554 15.228 40.932 14.472 41.094 13.608C41.256 12.744 41.202 11.934 40.932 11.07C40.716 10.422 40.338 9.882 39.906 9.396C39.474 8.91 38.934 8.532 38.34 8.262C37.746 7.992 37.098 7.83 36.396 7.83C35.694 7.83 35.1 7.992 34.506 8.262C34.236 8.37 34.02 8.532 33.75 8.694C33.48 8.856 33.318 9.018 33.102 9.18C32.67 9.612 32.346 10.098 32.076 10.638C31.806 11.178 31.698 11.772 31.644 12.366C31.59 12.906 31.644 13.446 31.806 13.932C31.968 14.472 32.184 14.958 32.508 15.39C32.832 15.876 33.21 16.254 33.696 16.578C34.182 16.902 34.668 17.172 35.208 17.28C35.748 17.388 36.234 17.442 36.828 17.442C37.368 17.388 37.908 17.28 38.394 17.064C38.286 17.118 38.124 17.172 38.016 17.226C37.908 17.28 37.746 17.334 37.584 17.388C37.908 17.28 38.232 17.118 38.556 17.01C39.096 16.794 39.582 16.362 40.014 15.876ZM54.864 4.914C55.944 4.914 56.97 5.13 57.888 5.508C58.86 5.94 59.67 6.48 60.372 7.182C61.074 7.884 61.614 8.694 62.046 9.666C62.478 10.638 62.64 11.61 62.64 12.69V19.008C62.64 19.44 62.478 19.764 62.208 20.088C61.938 20.412 61.56 20.52 61.128 20.52C60.696 20.52 60.372 20.358 60.048 20.088C59.724 19.818 59.616 19.44 59.616 19.008V16.092H54.81C54.756 16.092 54.648 16.092 54.54 16.092C54 16.092 53.514 16.2 53.028 16.308C52.542 16.47 52.11 16.686 51.678 17.01C51.3 17.28 50.922 17.658 50.652 18.036C50.382 18.468 50.166 18.9 50.004 19.386V19.44V19.494C49.896 19.818 49.734 20.034 49.464 20.25C49.194 20.412 48.924 20.52 48.546 20.52C48.114 20.52 47.79 20.358 47.466 20.088C47.142 19.818 47.034 19.44 47.034 19.008V18.792V12.69C47.034 11.718 47.196 10.854 47.52 9.99C47.898 8.964 48.492 8.046 49.248 7.236C50.004 6.534 50.814 5.94 51.786 5.508C52.758 5.076 53.784 4.914 54.864 4.914ZM59.67 13.068V12.69C59.67 11.826 59.454 11.07 59.076 10.368V10.314C59.076 10.314 59.076 10.314 59.076 10.26C59.022 10.152 58.968 10.044 58.86 9.99C58.806 9.882 58.752 9.828 58.644 9.72C58.212 9.18 57.672 8.694 57.024 8.37C56.376 8.046 55.674 7.884 54.864 7.884C54.108 7.884 53.352 8.046 52.704 8.424C52.056 8.748 51.516 9.234 51.084 9.774C50.76 10.206 50.544 10.638 50.382 11.124C50.22 11.61 50.112 12.15 50.112 12.69V14.472C50.76 14.04 51.462 13.662 52.218 13.392C52.974 13.122 53.784 13.014 54.648 13.014H54.918H59.67V13.068ZM71.064 5.022C72.306 4.806 73.548 4.914 74.736 5.292C75.924 5.67 77.004 6.318 77.868 7.236C78.624 7.992 79.164 8.802 79.542 9.774C79.92 10.746 80.136 11.718 80.136 12.798C80.136 13.608 80.028 14.418 79.758 15.228C79.488 16.038 79.11 16.74 78.624 17.388C77.814 18.468 76.842 19.278 75.6 19.818C74.412 20.358 73.116 20.628 71.82 20.52C71.118 20.466 70.47 20.358 69.822 20.088C69.174 19.872 68.58 19.548 67.986 19.17C67.446 18.792 66.906 18.36 66.474 17.874C66.042 17.388 65.664 16.794 65.34 16.2C65.07 15.606 64.854 14.958 64.692 14.31C64.53 13.662 64.476 13.014 64.53 12.366C64.584 11.718 64.692 11.07 64.854 10.422C65.016 9.774 65.286 9.18 65.664 8.586C65.772 8.37 65.934 8.154 66.096 7.938C66.69 7.128 67.446 6.48 68.31 5.994C69.174 5.562 70.092 5.238 71.064 5.022ZM76.302 15.444C76.626 14.958 76.896 14.418 77.004 13.824C77.166 13.23 77.166 12.636 77.112 12.042C77.004 11.448 76.842 10.908 76.572 10.476C76.248 9.882 75.816 9.396 75.33 8.964C74.79 8.532 74.25 8.262 73.602 8.1C72.954 7.938 72.306 7.884 71.658 7.992C71.01 8.1 70.362 8.316 69.822 8.694C69.12 9.18 68.526 9.774 68.148 10.584C67.716 11.34 67.554 12.204 67.608 13.068C67.662 13.77 67.824 14.364 68.094 14.958C68.148 15.12 68.256 15.228 68.31 15.39C68.364 15.552 68.472 15.714 68.58 15.822C68.418 15.552 68.31 15.336 68.148 15.066C68.418 15.552 68.742 15.93 69.12 16.308C69.498 16.686 69.984 16.956 70.47 17.172C71.01 17.388 71.55 17.55 72.09 17.55C72.63 17.55 73.224 17.496 73.764 17.334C74.304 17.172 74.736 16.956 75.222 16.578C75.654 16.254 75.978 15.876 76.302 15.444ZM96.39 20.52C95.958 20.52 95.634 20.358 95.31 20.088C95.04 19.818 94.878 19.44 94.878 19.008V10.044L92.934 11.988C92.556 12.366 92.124 12.69 91.638 12.906C91.152 13.122 90.612 13.23 90.072 13.23C89.532 13.23 88.992 13.122 88.506 12.906C88.02 12.69 87.588 12.42 87.21 11.988L85.266 10.044V19.062C85.266 19.494 85.104 19.818 84.834 20.142C84.564 20.412 84.186 20.574 83.754 20.574C83.322 20.574 82.944 20.412 82.674 20.142C82.404 19.872 82.242 19.494 82.242 19.062V6.426C82.242 5.994 82.404 5.67 82.674 5.346C82.944 5.022 83.322 4.914 83.754 4.914C84.078 4.914 84.348 5.022 84.618 5.184L84.834 5.346L89.154 9.72C89.424 9.99 89.802 10.098 90.126 10.098C90.504 10.098 90.828 9.99 91.098 9.72L95.58 5.238C95.85 5.076 96.12 4.968 96.444 4.968C96.876 4.968 97.2 5.13 97.524 5.4C97.848 5.67 97.956 6.048 97.956 6.48V19.116C97.956 19.548 97.794 19.872 97.524 20.196C97.254 20.52 96.822 20.52 96.39 20.52ZM107.892 4.914C108.972 4.914 109.998 5.13 110.916 5.508C111.888 5.94 112.698 6.48 113.4 7.182C114.102 7.884 114.642 8.694 115.074 9.666C115.506 10.638 115.668 11.61 115.668 12.69V19.008C115.668 19.44 115.506 19.764 115.236 20.088C114.966 20.412 114.588 20.52 114.156 20.52C113.724 20.52 113.4 20.358 113.076 20.088C112.752 19.818 112.644 19.44 112.644 19.008V16.092H107.838C107.784 16.092 107.676 16.092 107.568 16.092C107.028 16.092 106.542 16.2 106.056 16.308C105.57 16.47 105.138 16.686 104.706 17.01C104.328 17.28 103.95 17.658 103.68 18.036C103.41 18.468 103.194 18.9 103.032 19.386V19.44V19.494C102.924 19.818 102.762 20.034 102.492 20.25C102.222 20.412 101.952 20.52 101.574 20.52C101.142 20.52 100.818 20.358 100.494 20.088C100.17 19.818 100.062 19.44 100.062 19.008V18.792V12.69C100.062 11.718 100.224 10.854 100.548 9.99C100.926 8.964 101.52 8.046 102.276 7.236C103.032 6.534 103.842 5.94 104.814 5.508C105.786 5.076 106.812 4.914 107.892 4.914ZM112.698 13.068V12.69C112.698 11.826 112.482 11.07 112.104 10.368V10.314C112.104 10.314 112.104 10.314 112.104 10.26C112.05 10.152 111.996 10.044 111.888 9.99C111.834 9.882 111.78 9.828 111.672 9.72C111.24 9.18 110.7 8.694 110.052 8.37C109.404 8.046 108.702 7.884 107.892 7.884C107.136 7.884 106.38 8.046 105.732 8.424C105.084 8.748 104.544 9.234 104.112 9.774C103.788 10.206 103.572 10.638 103.41 11.124C103.248 11.61 103.14 12.15 103.14 12.69V14.472C103.788 14.04 104.49 13.662 105.246 13.392C106.002 13.122 106.812 13.014 107.676 13.014H107.946H112.698V13.068ZM131.814 19.008C131.814 19.332 131.706 19.656 131.49 19.926C131.274 20.196 131.004 20.412 130.626 20.466C130.248 20.52 129.924 20.52 129.6 20.358C129.276 20.196 129.006 19.926 128.898 19.602C128.844 19.44 128.79 19.278 128.79 19.116C128.79 18.954 128.79 18.792 128.736 18.63C128.682 18.198 128.574 17.766 128.466 17.388C128.142 16.632 127.71 16.038 127.17 15.552C126.468 14.958 125.712 14.58 124.74 14.418C124.524 14.364 124.308 14.364 124.092 14.364C123.876 14.364 123.66 14.364 123.444 14.364H122.094C122.04 14.364 121.986 14.364 121.986 14.418V14.688V17.496V18.684C121.986 18.846 121.986 19.008 121.986 19.17C121.986 19.332 121.932 19.494 121.878 19.602C121.716 19.926 121.5 20.196 121.176 20.358C120.852 20.52 120.528 20.574 120.15 20.466C119.826 20.412 119.556 20.196 119.286 19.926C119.07 19.656 118.962 19.332 118.962 18.954V17.118V12.636V8.1C118.962 7.776 118.962 7.506 118.962 7.182C118.962 6.858 118.962 6.588 118.962 6.264C118.962 5.886 119.07 5.616 119.34 5.292C119.61 5.022 119.88 4.86 120.204 4.806C120.636 4.752 121.014 4.86 121.392 5.13C121.77 5.4 121.932 5.724 121.986 6.156C122.04 6.318 122.04 6.48 122.04 6.642C122.04 6.804 122.04 6.966 122.04 7.128V8.586V10.584V11.016C122.04 11.124 122.04 11.124 122.04 11.124C122.04 11.124 122.094 11.124 122.148 11.124H123.552C123.552 11.124 123.606 11.124 123.66 11.124C123.714 11.124 123.768 11.124 123.768 11.124L123.984 10.746C124.092 10.53 124.2 10.368 124.308 10.152C124.416 9.936 124.524 9.774 124.632 9.558C125.01 8.91 125.388 8.316 125.766 7.668C126.144 7.02 126.522 6.372 126.9 5.778C126.954 5.616 127.062 5.508 127.17 5.346C127.278 5.184 127.386 5.076 127.494 4.968C127.818 4.752 128.196 4.644 128.574 4.698C128.952 4.752 129.33 4.914 129.546 5.238C129.762 5.454 129.87 5.778 129.87 6.102C129.87 6.426 129.816 6.696 129.654 6.966C129.6 7.074 129.546 7.182 129.492 7.29C129.438 7.398 129.384 7.506 129.33 7.614L126.9 11.718C127.602 11.988 128.25 12.42 128.844 12.906C129.438 13.392 129.978 13.932 130.41 14.58C130.842 15.228 131.166 15.876 131.436 16.632C131.706 17.496 131.814 18.252 131.814 19.008Z" fill="white"/>
</g>
<defs>
<clipPath id="clip0_1_267">
<rect width="131.814" height="27" fill="white"/>
</clipPath>
</defs>
</svg>
